<svg aria-hidden="true" style="position: absolute; width: 32; height:32; overflow: hidden;" version="1.1" xmlns="http://www.w3.org/2000/svg" xmlns:xlink="http://www.w3.org/1999/xlink">
<defs>

<symbol id="icon-trash" viewBox="0 0 32 32">
<path fill="#bc0000" style="fill: var(--color4, #bc0000)" d="M13.5 6.5v0.5h5v-0.5c0-0.663-0.263-1.299-0.732-1.768s-1.105-0.732-1.768-0.732-1.299 0.263-1.768 0.732c-0.469 0.469-0.732 1.105-0.732 1.768zM11.5 7v-0.5c0-1.193 0.474-2.338 1.318-3.182s1.989-1.318 3.182-1.318c1.194 0 2.338 0.474 3.182 1.318s1.318 1.989 1.318 3.182v0.5h7.5c0.265 0 0.52 0.105 0.707 0.293s0.293 0.442 0.293 0.707c0 0.265-0.105 0.52-0.293 0.707s-0.442 0.293-0.707 0.293h-1.508l-1.892 16.568c-0.14 1.22-0.723 2.346-1.64 3.164s-2.102 1.269-3.33 1.268h-7.26c-1.228 0.001-2.414-0.451-3.33-1.268s-1.5-1.944-1.64-3.164l-1.892-16.568h-1.508c-0.265 0-0.52-0.105-0.707-0.293s-0.293-0.442-0.293-0.707c0-0.265 0.105-0.52 0.293-0.707s0.442-0.293 0.707-0.293h7.5zM9.388 25.34c0.084 0.732 0.433 1.407 0.983 1.898s1.26 0.762 1.997 0.762h7.263c0.737-0 1.448-0.271 1.997-0.762s0.899-1.166 0.983-1.898l1.869-16.34h-16.959l1.867 16.34zM13 12.5c0.265 0 0.52 0.105 0.707 0.293s0.293 0.442 0.293 0.707v10c0 0.265-0.105 0.52-0.293 0.707s-0.442 0.293-0.707 0.293c-0.265 0-0.52-0.105-0.707-0.293s-0.293-0.442-0.293-0.707v-10c0-0.265 0.105-0.52 0.293-0.707s0.442-0.293 0.707-0.293zM20 13.5c0-0.265-0.105-0.52-0.293-0.707s-0.442-0.293-0.707-0.293c-0.265 0-0.52 0.105-0.707 0.293s-0.293 0.442-0.293 0.707v10c0 0.265 0.105 0.52 0.293 0.707s0.442 0.293 0.707 0.293c0.265 0 0.52-0.105 0.707-0.293s0.293-0.442 0.293-0.707v-10z"></path>
</symbol>

<symbol id="logo" viewBox="0 0 32 32">
<path fill="#581955" style="fill: var(--color1, #581955)" d="M13.258 5.961c0.051 0.154 0.050 0.256 0.046 0.417-0.014 0.684 0.001 1.309 0.193 1.967 0.010 0.036 0.020 0.072 0.031 0.11 0.311 1.081 0.967 2.353 1.968 2.947 0.211 0.091 0.37 0.083 0.583 0.005 0.57-0.279 0.941-0.831 1.281-1.346 0.030-0.045 0.060-0.090 0.091-0.136 0.731-1.174 0.9-2.471 0.958-3.822 0.096 0.122 0.171 0.238 0.234 0.381 0.025 0.055 0.025 0.055 0.050 0.11 0.017 0.039 0.035 0.077 0.053 0.117 0.504 1.086 1.406 2.537 2.514 3.081 0.041 0.015 0.082 0.030 0.124 0.045s0.083 0.031 0.126 0.047c0.031 0.011 0.062 0.022 0.094 0.033 0 0.031 0 0.063 0 0.095 0.032 0.010 0.065 0.020 0.098 0.030 0.228 0.107 0.409 0.272 0.567 0.467 0.215 0.183 0.458 0.254 0.723 0.344 0.051 0.018 0.103 0.036 0.156 0.055 0.712 0.265 0.712 0.265 1.46 0.297 0.155-0.082 0.155-0.082 0.191-0.238 0.022-0.285-0.043-0.505-0.137-0.769-0.019-0.056-0.019-0.056-0.039-0.113-0.064-0.185-0.131-0.368-0.205-0.548 0.199 0.064 0.39 0.137 0.581 0.22 0.686 0.293 1.363 0.557 2.089 0.734 0.069 0.017 0.069 0.017 0.14 0.034 0.287 0.070 0.574 0.138 0.862 0.204 0.13 0.48 0.143 0.903 0.005 1.381-0.107 0.332-0.107 0.332-0.033 0.655 0.108 0.104 0.108 0.104 0.232 0.197 0.349 0.279 0.567 0.712 0.746 1.114 0.013 0.030 0.027 0.060 0.041 0.091 0.325 0.77 0.309 1.75 0.010 2.523-0.193 0.462-0.424 0.868-0.763 1.24-0.025 0.030-0.049 0.059-0.075 0.090-0.298 0.334-0.749 0.567-1.165 0.721 0.026 0.052 0.052 0.105 0.078 0.159 0.453 0.931 0.713 2.023 0.364 3.041-0.196 0.523-0.457 0.959-0.824 1.378-0.028 0.033-0.056 0.065-0.084 0.099-0.398 0.432-0.941 0.71-1.489 0.903-0.047 0-0.094 0-0.143 0 0.001 0.035 0.002 0.071 0.003 0.107 0.030 1.218-0.13 2.199-0.957 3.136-0.037 0.049-0.075 0.098-0.113 0.149-0.604 0.662-1.514 1.13-2.411 1.197-0.868 0.033-1.476-0.072-2.245-0.487-0.008 0.057-0.016 0.114-0.024 0.173-0.162 0.711-0.728 1.368-1.329 1.754-0.062 0.037-0.062 0.037-0.126 0.076-0.046 0.029-0.092 0.058-0.139 0.088-0.843 0.496-1.875 0.576-2.818 0.342-0.652-0.191-1.138-0.48-1.621-0.954-0.036-0.035-0.073-0.069-0.11-0.105-0.236-0.241-0.402-0.499-0.56-0.795-0.028-0.053-0.028-0.053-0.057-0.107-0.091-0.178-0.131-0.264-0.131-0.472-0.026 0.014-0.051 0.029-0.078 0.044-0.586 0.313-1.11 0.454-1.771 0.457-0.049 0-0.098 0.001-0.149 0.001-0.501-0.008-0.963-0.122-1.413-0.341-0.034-0.016-0.069-0.033-0.104-0.050-1.054-0.523-1.766-1.476-2.138-2.576-0.134-0.512-0.129-1.117-0.024-1.636-0.055-0.004-0.109-0.008-0.166-0.012-0.232-0.029-0.412-0.115-0.615-0.227-0.035-0.019-0.071-0.038-0.107-0.058-0.522-0.293-0.877-0.688-1.21-1.182-0.035-0.051-0.069-0.102-0.105-0.155-0.496-0.792-0.572-1.736-0.442-2.65 0.067-0.288 0.176-0.555 0.308-0.82 0.022-0.044 0.043-0.087 0.065-0.132 0.057-0.115 0.115-0.23 0.173-0.344-0.058-0.015-0.116-0.029-0.176-0.045-0.743-0.251-1.29-0.875-1.648-1.55-0.433-0.88-0.53-1.911-0.245-2.859 0.202-0.533 0.473-0.951 0.862-1.369 0.026-0.028 0.052-0.056 0.078-0.085 0.023-0.024 0.047-0.049 0.071-0.074 0.066-0.089 0.087-0.157 0.104-0.267-0.019-0.101-0.043-0.201-0.069-0.301-0.109-0.475-0.103-0.934-0.027-1.416 0.268-0.096 0.536-0.171 0.813-0.236 0.972-0.226 1.963-0.557 2.859-1.004-0.020 0.058-0.039 0.116-0.060 0.176-0.028 0.084-0.056 0.169-0.083 0.253-0.017 0.050-0.033 0.1-0.050 0.151-0.097 0.3-0.183 0.581-0.188 0.898 0.067 0.121 0.105 0.18 0.24 0.219 0.547 0.005 1.060-0.215 1.567-0.399 0.037-0.013 0.074-0.027 0.112-0.040 0.070-0.026 0.14-0.052 0.21-0.078 0.239-0.088 0.239-0.088 0.398-0.035-0.016 0.022-0.031 0.044-0.047 0.067-0.021 0.031-0.042 0.062-0.063 0.094-0.020 0.030-0.041 0.060-0.062 0.091-0.192 0.378-0.236 0.751-0.233 1.17 0 0.050 0.001 0.101 0.001 0.153 0.015 0.623 0.218 1.108 0.643 1.573 0.565 0.509 1.179 0.685 1.925 0.678 0.643-0.038 1.216-0.298 1.651-0.773 0.128-0.167 0.234-0.339 0.334-0.525 0.031-0.056 0.031-0.056 0.063-0.113 0.14-0.305 0.146-0.609 0.149-0.939 0.001-0.044 0.001-0.088 0.001-0.133-0.009-0.695-0.304-1.215-0.772-1.715-0.394-0.378-0.936-0.589-1.479-0.586-0.051 0-0.102 0-0.154 0s-0.105 0.001-0.159 0.001c-0.080 0-0.080 0-0.162 0.001-0.132 0.001-0.263 0.001-0.395 0.002 0.134-0.135 0.269-0.268 0.405-0.401 0.333-0.327 0.654-0.652 0.931-1.029 0.018-0.024 0.037-0.049 0.056-0.074 0.446-0.596 0.795-1.224 1.105-1.899 0.056-0.122 0.113-0.243 0.175-0.363z"></path>
<path fill="#fbc707" style="fill: var(--color2, #fbc707)" d="M16.024 1.097c0.256 0.090 0.403 0.235 0.525 0.477 0.006 0.094 0.008 0.188 0.010 0.282 0.001 0.059 0.002 0.118 0.003 0.179 0.001 0.065 0.002 0.13 0.002 0.195 0.001 0.066 0.002 0.132 0.003 0.198 0.003 0.174 0.005 0.348 0.007 0.523 0.002 0.178 0.005 0.355 0.008 0.533 0.005 0.349 0.010 0.698 0.015 1.046 0.059-0.044 0.059-0.044 0.119-0.090 0.052-0.039 0.104-0.078 0.156-0.118 0.026-0.019 0.051-0.039 0.078-0.059 0.293-0.221 0.605-0.386 0.936-0.544 0.070-0.034 0.070-0.034 0.141-0.068 1.832-0.789 4.115-0.494 5.915 0.211 1.528 0.614 2.822 1.535 4.006 2.671 0.027 0.026 0.053 0.051 0.081 0.077 1.012 0.975 1.793 2.166 2.447 3.404 0.017 0.033 0.035 0.065 0.053 0.099 0.089 0.191 0.068 0.412 0.043 0.617-0.086 0.143-0.138 0.212-0.286 0.286-1.597 0.061-3.351-0.396-4.817-1.002-0.043-0.017-0.085-0.035-0.129-0.053-0.664-0.272-0.664-0.272-0.872-0.376 0.016 0.036 0.031 0.072 0.047 0.108 0.38 0.889 0.38 0.889 0.334 1.275-0.105 0.219-0.105 0.219-0.238 0.286-0.388 0.046-0.726-0.057-1.091-0.176-0.078-0.024-0.078-0.024-0.158-0.049-1.017-0.322-1.017-0.322-1.294-0.685-0.111-0.129-0.241-0.202-0.389-0.282-0.024-0.016-0.047-0.032-0.072-0.048 0-0.031 0-0.063 0-0.095-0.050-0.007-0.050-0.007-0.101-0.015-0.294-0.070-0.498-0.227-0.712-0.432-0.027-0.025-0.053-0.050-0.081-0.076-0.056-0.053-0.111-0.106-0.167-0.16-0.054-0.052-0.109-0.104-0.164-0.156-0.866-0.815-1.439-1.803-1.922-2.881-0.002 0.035-0.003 0.070-0.005 0.107-0.052 1.040-0.18 1.994-0.615 2.945-0.013 0.029-0.026 0.058-0.040 0.087-0.175 0.378-0.374 0.726-0.628 1.057-0.030 0.040-0.061 0.080-0.092 0.122-0.675 0.868-0.675 0.868-1.197 0.999-0.294 0.026-0.496-0.13-0.714-0.311-1.091-0.956-1.705-2.351-1.908-3.768-0.004-0.114-0.005-0.227-0.005-0.341 0-0.047 0-0.047 0-0.095 0-0.099 0.001-0.198 0.001-0.297 0-0.068 0-0.135 0.001-0.203 0.001-0.165 0.001-0.33 0.002-0.495-0.012 0.027-0.023 0.054-0.036 0.081-0.362 0.822-0.765 1.614-1.347 2.303-0.032 0.040-0.063 0.081-0.096 0.122-0.213 0.271-0.441 0.519-0.685 0.763-0.029 0.029-0.058 0.058-0.088 0.088-0.121 0.119-0.229 0.22-0.371 0.315 0.046-0.001 0.046-0.001 0.093-0.002 0.142-0.003 0.284-0.005 0.425-0.007 0.048-0.001 0.097-0.002 0.146-0.004 0.683-0.007 1.257 0.238 1.752 0.706 0.582 0.616 0.712 1.226 0.699 2.047-0.026 0.633-0.362 1.161-0.815 1.591-0.611 0.498-1.282 0.584-2.045 0.524-0.623-0.093-1.17-0.46-1.55-0.947-0.454-0.662-0.535-1.361-0.407-2.151 0.064-0.282 0.188-0.528 0.365-0.755-0.318 0.078-0.625 0.176-0.933 0.286-0.104 0.037-0.207 0.074-0.311 0.111-0.077 0.027-0.154 0.055-0.231 0.083-0.283 0.095-0.564 0.143-0.862 0.093-0.131-0.092-0.131-0.092-0.191-0.238 0-0.493 0.204-0.977 0.382-1.431-0.037 0.018-0.075 0.036-0.113 0.054-0.377 0.177-0.756 0.334-1.148 0.477-0.057 0.021-0.113 0.042-0.172 0.063-0.378 0.137-0.752 0.265-1.143 0.36-0.039 0.009-0.077 0.019-0.117 0.029-0.256 0.063-0.512 0.124-0.768 0.183-0.073 0.017-0.146 0.034-0.218 0.052-0.328 0.079-0.659 0.113-0.995 0.147-0.058 0.006-0.116 0.013-0.176 0.019-0.824 0.087-0.824 0.087-1.061-0.013-0.154-0.131-0.186-0.218-0.215-0.417 0.058-1.37 1.691-3.023 2.596-3.958 0.023-0.024 0.046-0.048 0.070-0.072 0.639-0.658 1.353-1.198 2.124-1.692 0.042-0.027 0.042-0.027 0.084-0.055 1.905-1.232 4.379-1.872 6.628-1.417 0.613 0.137 1.168 0.347 1.726 0.635 0.032 0.017 0.064 0.033 0.097 0.050 0.184 0.099 0.349 0.212 0.514 0.342 0.038 0.030 0.076 0.060 0.115 0.091 0.043 0.034 0.043 0.034 0.087 0.069-0-0.053-0-0.053-0.001-0.107-0.003-0.333-0.005-0.665-0.006-0.998-0.001-0.171-0.002-0.342-0.003-0.513-0.002-0.165-0.002-0.33-0.003-0.495-0-0.093-0.002-0.187-0.003-0.28 0-0.057-0-0.115-0-0.174-0-0.075-0-0.075-0.001-0.152 0.034-0.283 0.177-0.486 0.394-0.661 0.187-0.102 0.371-0.088 0.577-0.054z"></path>
<path fill="#eda904" style="fill: var(--color3, #eda904)" d="M17.311 5.151c0.222 0.070 0.434 0.156 0.647 0.25 0.036 0.016 0.072 0.032 0.11 0.049 0.452 0.203 0.896 0.421 1.342 0.637 0.044 0.021 0.044 0.021 0.089 0.043 0.044 0.021 0.044 0.021 0.089 0.043 0.175 0.085 0.35 0.168 0.526 0.25 0.469 0.219 0.925 0.453 1.377 0.704 0.31 0.171 0.624 0.326 0.945 0.475 0.567 0.265 1.108 0.57 1.648 0.885-0.017-0.039-0.033-0.077-0.050-0.117-0.022-0.051-0.043-0.102-0.066-0.154-0.022-0.050-0.043-0.101-0.065-0.153-0.050-0.13-0.082-0.25-0.105-0.387 0.337 0.064 0.635 0.171 0.951 0.304 1.309 0.535 2.656 0.964 4.001 1.398 0.353 0.114 0.705 0.231 1.057 0.349 0.047 0.016 0.094 0.031 0.143 0.048 0 0.031 0 0.063 0 0.095 0.094 0.016 0.189 0.031 0.286 0.048-0.055-0.118-0.098-0.193-0.191-0.286-0.006-0.149-0.006-0.149 0-0.286-0.047-0.016-0.094-0.031-0.143-0.048-0.016-0.094-0.031-0.189-0.048-0.286 0.112 0.103 0.185 0.205 0.258 0.338 0.031 0.056 0.031 0.056 0.063 0.113 0.021 0.039 0.042 0.078 0.064 0.118 0.021 0.039 0.043 0.077 0.065 0.117 0.057 0.105 0.115 0.21 0.171 0.315 0.026 0.050 0.026 0.050 0.053 0.1 0.088 0.19 0.067 0.411 0.042 0.615-0.086 0.143-0.138 0.212-0.286 0.286-1.597 0.061-3.351-0.396-4.817-1.002-0.043-0.017-0.085-0.035-0.129-0.053-0.664-0.272-0.664-0.272-0.872-0.376 0.016 0.036 0.031 0.072 0.047 0.108 0.38 0.889 0.38 0.889 0.334 1.275-0.105 0.219-0.105 0.219-0.238 0.286-0.388 0.046-0.726-0.057-1.091-0.176-0.052-0.016-0.104-0.032-0.158-0.049-1.017-0.322-1.017-0.322-1.294-0.685-0.111-0.129-0.241-0.202-0.389-0.282-0.024-0.016-0.047-0.032-0.072-0.048 0-0.031 0-0.063 0-0.095-0.033-0.005-0.067-0.010-0.101-0.015-0.294-0.070-0.498-0.227-0.712-0.432-0.027-0.025-0.053-0.050-0.081-0.076-0.056-0.053-0.111-0.106-0.167-0.16-0.054-0.052-0.109-0.104-0.164-0.156-0.866-0.815-1.439-1.803-1.922-2.881-0.002 0.035-0.003 0.070-0.005 0.107-0.052 1.040-0.18 1.994-0.615 2.945-0.013 0.029-0.026 0.058-0.040 0.087-0.175 0.378-0.374 0.726-0.628 1.057-0.030 0.040-0.061 0.080-0.092 0.122-0.675 0.868-0.675 0.868-1.197 0.999-0.294 0.026-0.496-0.13-0.714-0.311-1.091-0.956-1.705-2.351-1.908-3.768-0.004-0.114-0.005-0.227-0.005-0.341 0-0.047 0-0.047 0-0.095 0-0.099 0.001-0.198 0.001-0.297 0-0.068 0-0.135 0.001-0.203 0.001-0.165 0.001-0.33 0.002-0.495-0.012 0.027-0.023 0.054-0.036 0.081-0.362 0.822-0.765 1.614-1.347 2.303-0.032 0.040-0.063 0.081-0.096 0.122-0.213 0.271-0.441 0.519-0.685 0.763-0.029 0.029-0.058 0.058-0.088 0.088-0.121 0.119-0.229 0.22-0.371 0.315 0.031-0.001 0.061-0.002 0.093-0.002 0.142-0.003 0.284-0.005 0.425-0.007 0.048-0.001 0.097-0.002 0.146-0.004 0.683-0.007 1.257 0.238 1.752 0.706 0.582 0.616 0.712 1.226 0.699 2.047-0.026 0.633-0.362 1.161-0.815 1.591-0.611 0.498-1.282 0.584-2.045 0.524-0.623-0.093-1.17-0.46-1.55-0.947-0.454-0.662-0.535-1.361-0.407-2.151 0.064-0.282 0.188-0.528 0.365-0.755-0.318 0.078-0.625 0.176-0.933 0.286-0.104 0.037-0.207 0.074-0.311 0.111-0.077 0.027-0.154 0.055-0.231 0.083-0.283 0.095-0.564 0.143-0.862 0.093-0.131-0.092-0.131-0.092-0.191-0.238 0-0.493 0.204-0.977 0.382-1.431-0.037 0.018-0.075 0.036-0.113 0.054-0.377 0.177-0.756 0.334-1.148 0.477-0.057 0.021-0.113 0.042-0.172 0.063-0.378 0.137-0.752 0.265-1.143 0.36-0.039 0.009-0.077 0.019-0.117 0.029-0.256 0.063-0.512 0.124-0.768 0.183-0.073 0.017-0.146 0.034-0.218 0.052-0.328 0.079-0.659 0.113-0.995 0.147-0.058 0.006-0.116 0.013-0.176 0.019-0.824 0.087-0.824 0.087-1.061-0.013-0.154-0.131-0.186-0.218-0.215-0.417 0.007-0.29 0.151-0.655 0.355-0.858 0 0.063 0 0.126 0 0.191 0.31-0.058 0.586-0.151 0.877-0.271 0.138-0.050 0.271-0.091 0.413-0.128 0.318-0.084 0.626-0.193 0.936-0.301 0.122-0.043 0.244-0.085 0.367-0.128 0.030-0.011 0.061-0.021 0.092-0.032 0.344-0.12 0.69-0.234 1.037-0.347 0.29-0.095 0.573-0.203 0.856-0.319 0.1-0.039 0.201-0.078 0.301-0.116 0.052-0.020 0.104-0.040 0.158-0.061 0.107-0.041 0.214-0.082 0.321-0.123 0.052-0.020 0.104-0.040 0.158-0.061 0.051-0.019 0.101-0.039 0.154-0.059 0.177-0.069 0.353-0.141 0.528-0.215 0.096-0.033 0.096-0.033 0.24-0.033-0.031 0.194-0.093 0.36-0.17 0.54-0.022 0.051-0.043 0.102-0.066 0.154-0.025 0.058-0.025 0.058-0.050 0.117 0.519-0.27 1.038-0.541 1.556-0.814 0.036-0.019 0.073-0.038 0.11-0.058 0.193-0.101 0.385-0.203 0.577-0.305 0.612-0.324 1.232-0.626 1.858-0.921 0.174-0.082 0.348-0.165 0.522-0.247 0.041-0.020 0.083-0.039 0.125-0.059 0.253-0.12 0.504-0.244 0.754-0.37 0.252-0.127 0.505-0.252 0.76-0.373 0.030-0.014 0.060-0.029 0.091-0.044 0.134-0.063 0.222-0.099 0.371-0.099 0.009 0.058 0.009 0.058 0.017 0.116 0.288 2.051 0.288 2.051 1.509 3.651 0.397-0.18 0.61-0.536 0.811-0.906 0.036-0.064 0.036-0.064 0.073-0.129 0.456-0.849 0.602-1.828 0.642-2.78z"></path>
<path fill="#fd1a66" style="fill: var(--color4, #fd1a66)" d="M16.966 13.291c0.634 0.494 1.156 1.214 1.3 2.018 0.070 0.681-0.020 1.382-0.444 1.94-0.058 0.069-0.117 0.138-0.176 0.206-0.023 0.029-0.046 0.058-0.069 0.088-0.296 0.343-0.82 0.604-1.266 0.675-0.691 0.049-1.387 0.070-1.955-0.382-0.030-0.023-0.059-0.046-0.090-0.070-0.47-0.382-0.825-0.945-0.912-1.552-0.069-0.904 0.119-1.61 0.668-2.337 0.077-0.082 0.157-0.161 0.238-0.238 0.037-0.036 0.074-0.072 0.113-0.109 0.796-0.738 1.668-0.878 2.594-0.24z"></path>
<path fill="#fd1b66" style="fill: var(--color5, #fd1b66)" d="M15.791 19.013c0.061-0 0.061-0 0.122-0.001 0.693 0.008 1.237 0.302 1.732 0.779 0.588 0.685 0.681 1.418 0.62 2.289-0.039 0.207-0.097 0.384-0.191 0.572-0.017 0.034-0.033 0.067-0.051 0.102-0.351 0.619-0.927 1.098-1.613 1.29-0.479 0.097-1.038 0.108-1.484-0.104-0.045-0.019-0.090-0.037-0.136-0.056-0.651-0.291-1.092-0.829-1.363-1.482-0.178-0.59-0.173-1.347 0.090-1.909 0.359-0.631 0.831-1.149 1.522-1.411 0.248-0.067 0.496-0.067 0.751-0.069z"></path>
<path fill="#fd1a64" style="fill: var(--color6, #fd1a64)" d="M20.304 9.672c0.045-0.001 0.091-0.001 0.137-0.002 0.423-0.001 0.779 0.070 1.162 0.249 0 0.031 0 0.063 0 0.095 0.032 0.010 0.065 0.020 0.098 0.030 0.414 0.194 0.602 0.529 0.808 0.924 0.024 0.047 0.024 0.047 0.049 0.094 0.249 0.527 0.283 1.23 0.112 1.783-0.244 0.63-0.637 1.168-1.258 1.46-0.751 0.296-1.522 0.335-2.274 0.009-0.182-0.094-0.337-0.209-0.492-0.343-0.029-0.025-0.058-0.050-0.088-0.076-0.45-0.419-0.675-0.962-0.741-1.569-0.021-0.616 0.134-1.193 0.495-1.694 0.035-0.049 0.071-0.098 0.107-0.149 0.547-0.572 1.103-0.813 1.884-0.814z"></path>
<path fill="#f3f4f3" style="fill: var(--color7, #f3f4f3)" d="M11.222 9.666c0.042-0.001 0.085-0.002 0.128-0.002 0.657-0 1.228 0.262 1.701 0.711 0.582 0.616 0.712 1.226 0.699 2.047-0.026 0.633-0.362 1.161-0.815 1.591-0.611 0.498-1.282 0.584-2.045 0.524-0.623-0.093-1.17-0.46-1.55-0.947-0.472-0.688-0.533-1.415-0.392-2.23 0.212-0.703 0.681-1.183 1.314-1.523 0.322-0.143 0.611-0.17 0.958-0.169z"></path>
<path fill="#f2f4f3" style="fill: var(--color8, #f2f4f3)" d="M21.842 22.51c0.032 0.023 0.063 0.047 0.096 0.071 0.444 0.356 0.709 0.851 0.81 1.408 0.070 0.672-0.020 1.253-0.438 1.801-0.029 0.035-0.057 0.070-0.087 0.107-0.023 0.030-0.046 0.060-0.069 0.090-0.379 0.44-1.045 0.689-1.61 0.732-0.71 0.026-1.318-0.213-1.851-0.679-0.562-0.691-0.7-1.316-0.62-2.194 0.037-0.195 0.094-0.351 0.191-0.525 0.024-0.044 0.047-0.089 0.072-0.134 0.314-0.537 0.803-0.953 1.409-1.124 0.762-0.13 1.465-0.022 2.095 0.447z"></path>
<path fill="#fd1a65" style="fill: var(--color9, #fd1a65)" d="M26.319 13.133c0.514 0.433 0.846 1.023 0.906 1.699 0.035 0.644-0.193 1.21-0.599 1.702-0.356 0.383-0.925 0.696-1.454 0.739-0.74 0.019-1.346 0.001-1.936-0.503-0.309-0.298-0.519-0.578-0.678-0.984-0.013-0.032-0.025-0.063-0.038-0.096-0.199-0.626-0.041-1.322 0.246-1.893 0.067-0.108 0.139-0.204 0.222-0.301 0.030-0.036 0.059-0.072 0.090-0.109 0.835-0.923 2.259-0.99 3.242-0.254z"></path>
<path fill="#fd1c67" style="fill: var(--color10, #fd1c67)" d="M12.323 16.226c0.547 0.373 0.884 0.969 1.030 1.61 0.059 0.694-0.041 1.298-0.477 1.86-0.035 0.049-0.071 0.098-0.107 0.149-0.437 0.457-0.992 0.679-1.619 0.719-0.678 0.009-1.288-0.11-1.808-0.576-0.527-0.571-0.703-1.169-0.68-1.93 0.037-0.647 0.372-1.195 0.831-1.636 0.823-0.658 1.923-0.732 2.829-0.195z"></path>
<path fill="#f2f4f3" style="fill: var(--color8, #f2f4f3)" d="M12.571 22.424c0.538 0.404 0.866 0.907 1.021 1.564 0.066 0.734-0.090 1.384-0.562 1.964-0.42 0.455-1.016 0.709-1.626 0.767-0.632 0.021-1.247-0.159-1.723-0.585-0.296-0.283-0.515-0.573-0.668-0.954-0.026-0.062-0.026-0.062-0.053-0.125-0.142-0.534-0.122-1.249 0.148-1.735 0.036-0.067 0.036-0.067 0.074-0.136 0.309-0.526 0.778-0.911 1.363-1.098 0.703-0.166 1.418-0.059 2.025 0.337z"></path>
<path fill="#f2f3f2" style="fill: var(--color11, #f2f3f2)" d="M6.724 12.671c0.040-0 0.080-0 0.121-0 0.641 0.005 1.166 0.222 1.637 0.664 0.56 0.627 0.672 1.25 0.634 2.059-0.040 0.571-0.404 1.018-0.805 1.404-0.206 0.162-0.44 0.27-0.681 0.371-0.042 0.018-0.083 0.036-0.126 0.054-0.607 0.156-1.378 0.122-1.925-0.197-0.136-0.087-0.259-0.181-0.382-0.286-0.039-0.028-0.077-0.057-0.117-0.086-0.139-0.121-0.222-0.243-0.318-0.4-0.032-0.051-0.063-0.102-0.096-0.154-0.2-0.362-0.259-0.705-0.256-1.116 0-0.046 0-0.092 0.001-0.14 0.009-0.364 0.072-0.651 0.262-0.966 0.022-0.039 0.045-0.078 0.068-0.118 0.439-0.708 1.15-1.105 1.983-1.089z"></path>
<path fill="#f2f3f2" style="fill: var(--color11, #f2f3f2)" d="M21.89 16.262c0.492 0.368 0.862 0.874 1.002 1.478 0.020 0.182 0.022 0.362 0.021 0.545 0.001 0.046 0.002 0.093 0.003 0.141-0 0.52-0.198 0.905-0.501 1.317-0.036 0.050-0.073 0.1-0.11 0.152-0.39 0.408-0.935 0.641-1.497 0.667-0.728 0.008-1.353-0.15-1.898-0.661-0.515-0.556-0.625-1.182-0.611-1.91 0.026-0.611 0.282-1.186 0.732-1.605 0.803-0.649 2-0.727 2.86-0.124z"></path>
<path fill="#d50244" style="fill: var(--color12, #d50244)" d="M18.075 14.832c0.189 0.284 0.206 0.573 0.203 0.903 0.001 0.054 0.001 0.054 0.001 0.11-0.002 0.618-0.23 1.148-0.633 1.61-0.023 0.029-0.046 0.058-0.069 0.088-0.296 0.343-0.82 0.604-1.266 0.675-0.691 0.049-1.387 0.070-1.955-0.382-0.030-0.023-0.059-0.046-0.090-0.070-0.479-0.389-0.808-0.941-0.912-1.552-0.004-0.077-0.005-0.155-0.005-0.232 0-0.042 0-0.085 0-0.128s0.001-0.087 0.001-0.132c0-0.044 0-0.089 0.001-0.135 0.001-0.109 0.001-0.218 0.002-0.327 0.047 0.016 0.094 0.031 0.143 0.048 0.010-0.030 0.020-0.061 0.030-0.092 0.066-0.098 0.066-0.098 0.215-0.134 0.045-0.004 0.091-0.008 0.137-0.012 0.016-0.063 0.031-0.126 0.048-0.191 0.031 0 0.063 0 0.095 0 0.011 0.046 0.022 0.092 0.033 0.14 0.144 0.585 0.31 1.113 0.84 1.458 0.424 0.244 0.869 0.277 1.351 0.192 0.443-0.135 0.839-0.378 1.067-0.789 0.134-0.292 0.171-0.588 0.191-0.906 0.095 0 0.191 0.003 0.286 0.009 0.143 0.005 0.143 0.005 0.233-0.080 0.027-0.035 0.027-0.035 0.054-0.072zM17.598 14.879c0.095 0.048 0.095 0.048 0.095 0.048z"></path>
<path fill="#d10143" style="fill: var(--color13, #d10143)" d="M18.075 20.554c0.309 0.463 0.256 1.182 0.156 1.708-0.043 0.137-0.093 0.262-0.156 0.39-0.017 0.034-0.033 0.067-0.051 0.102-0.351 0.619-0.927 1.098-1.613 1.29-0.479 0.097-1.038 0.108-1.484-0.104-0.045-0.019-0.090-0.037-0.136-0.056-0.617-0.276-1.040-0.764-1.311-1.377-0.136-0.364-0.155-0.637-0.028-1.002 0.015-0.030 0.030-0.061 0.045-0.092 0.047 0.016 0.094 0.031 0.143 0.048 0 0.031 0 0.063 0 0.095 0.173-0.016 0.346-0.031 0.525-0.048 0.027 0.041 0.054 0.083 0.082 0.126 0.349 0.525 0.637 0.804 1.249 1.001 0.398 0.073 0.85-0.017 1.196-0.22 0.345-0.248 0.561-0.511 0.715-0.906 0.020-0.049 0.039-0.098 0.060-0.149 0.030-0.117 0.045-0.22 0.057-0.34 0.013-0.089 0.013-0.089 0.027-0.179 0.047-0.031 0.094-0.063 0.143-0.095 0.047 0.024 0.047 0.024 0.095 0.048 0 0.031 0 0.063 0 0.095 0.079 0.016 0.157 0.031 0.238 0.048 0-0.031 0-0.063 0-0.095-0.047-0.024-0.047-0.024-0.095-0.048 0.047 0 0.094 0 0.143 0 0-0.079 0-0.157 0-0.238z"></path>
<path fill="#d70245" style="fill: var(--color14, #d70245)" d="M18.218 11.732c0.047 0.016 0.094 0.031 0.143 0.048-0.016 0.031-0.031 0.063-0.048 0.095 0.094-0.031 0.189-0.063 0.286-0.095 0.013 0.036 0.026 0.073 0.039 0.11 0.212 0.559 0.476 0.869 1.018 1.125 0.423 0.164 0.831 0.137 1.248-0.031 0.377-0.178 0.608-0.387 0.843-0.728 0.098-0.122 0.098-0.122 0.191-0.191 0.131 0.009 0.217 0.037 0.334 0.095 0.031-0.079 0.063-0.157 0.095-0.238 0.063 0.031 0.126 0.063 0.191 0.095 0 0.031 0 0.063 0 0.095 0.031 0 0.063 0 0.095 0 0.097 0.596-0.033 0.978-0.373 1.469-0.452 0.586-0.998 0.846-1.726 0.963-0.64 0.061-1.314-0.088-1.818-0.495-0.029-0.025-0.059-0.051-0.089-0.077-0.029-0.025-0.058-0.050-0.088-0.076-0.444-0.413-0.711-0.985-0.735-1.594-0-0.159 0.003-0.317 0.012-0.477 0.045 0.002 0.090 0.004 0.137 0.006 0.154 0.011 0.154 0.011 0.244-0.101z"></path>
<path fill="#06ae78" style="fill: var(--color15, #06ae78)" d="M16.024 1.097c0.256 0.090 0.403 0.235 0.525 0.477 0.005 0.126 0.008 0.251 0.008 0.377 0 0.039 0 0.078 0.001 0.118 0.001 0.129 0.001 0.259 0.001 0.388 0 0.090 0.001 0.18 0.001 0.269 0 0.189 0.001 0.377 0.001 0.566 0 0.241 0.001 0.482 0.003 0.724 0.001 0.186 0.001 0.372 0.001 0.557 0 0.089 0.001 0.178 0.001 0.267 0.001 0.125 0.001 0.249 0 0.374 0 0.036 0.001 0.073 0.001 0.11-0.002 0.316-0.069 0.576-0.278 0.822-0.211 0.175-0.367 0.219-0.638 0.211-0.165-0.023-0.234-0.081-0.342-0.205-0.201-0.326-0.246-0.617-0.246-0.997-0-0.037-0-0.074-0.001-0.113-0.001-0.123-0.001-0.245-0.001-0.368-0-0.086-0.001-0.171-0.001-0.257-0.001-0.179-0.001-0.358-0.001-0.538-0-0.229-0.001-0.459-0.003-0.688-0.001-0.177-0.001-0.353-0.001-0.53-0-0.085-0.001-0.169-0.001-0.254-0.001-0.118-0.001-0.237-0-0.355-0-0.035-0.001-0.069-0.001-0.105 0.002-0.264 0.071-0.447 0.232-0.655 0.232-0.216 0.431-0.247 0.741-0.196z"></path>
<path fill="#d30243" style="fill: var(--color16, #d30243)" d="M12.638 17.55c0.028 0.015 0.055 0.029 0.083 0.045 0.1 0.047 0.191 0.075 0.298 0.098 0.024 0.094 0.024 0.094 0.048 0.191 0.047-0.016 0.094-0.031 0.143-0.048 0.047 0.094 0.047 0.094 0.095 0.191 0.016-0.063 0.031-0.126 0.048-0.191 0.030 0.704-0.030 1.284-0.477 1.86-0.035 0.049-0.071 0.098-0.107 0.149-0.437 0.457-0.992 0.679-1.619 0.719-0.678 0.009-1.288-0.11-1.808-0.576-0.606-0.656-0.687-1.297-0.663-2.152 0.016 0 0.031 0 0.048 0 0 0.11 0 0.22 0 0.334 0.031 0 0.063 0 0.095 0 0-0.047 0-0.094 0-0.143 0.031 0.016 0.063 0.031 0.095 0.048-0.016 0.031-0.031 0.063-0.048 0.095 0.063-0.063 0.126-0.126 0.191-0.191 0.094 0.031 0.189 0.063 0.286 0.095 0 0.031 0 0.063 0 0.095 0.028 0.003 0.057 0.007 0.086 0.010 0.145 0.052 0.178 0.13 0.257 0.261 0.21 0.316 0.487 0.519 0.849 0.635 0.125 0.010 0.242 0.016 0.367 0.015 0.034-0 0.068-0.001 0.102-0.001 0.544-0.012 0.905-0.19 1.284-0.577 0.215-0.305 0.319-0.592 0.346-0.963z"></path>
<path fill="#d50244" style="fill: var(--color12, #d50244)" d="M26.468 14.402c0.047 0.024 0.047 0.024 0.095 0.048 0 0.031 0 0.063 0 0.095 0.029-0.010 0.059-0.020 0.089-0.030 0.050-0.009 0.050-0.009 0.101-0.018 0.047 0.047 0.047 0.047 0.095 0.095 0.016-0.031 0.031-0.063 0.048-0.095 0.094 0 0.189 0 0.286 0 0.093 0.718-0.024 1.334-0.465 1.924-0.365 0.442-0.884 0.721-1.443 0.842-0.686 0.056-1.334 0.035-1.908-0.382-0.375-0.32-0.629-0.634-0.811-1.097-0.013-0.032-0.025-0.063-0.038-0.096-0.101-0.317-0.065-0.672-0.057-1.001 0.016 0 0.031 0 0.048 0 0.016 0.126 0.031 0.252 0.048 0.382 0.079-0.031 0.157-0.063 0.238-0.095 0 0.031 0 0.063 0 0.095 0.045-0.017 0.090-0.033 0.137-0.051 0.149-0.045 0.149-0.045 0.244 0.003-0.016 0.031-0.031 0.063-0.048 0.095 0.047 0 0.094 0 0.143 0 0.092 0.006 0.092 0.006 0.191 0.048 0.037 0.062 0.037 0.062 0.075 0.125 0.154 0.255 0.473 0.447 0.755 0.527 0.54 0.067 1.058 0.050 1.51-0.283 0.030-0.028 0.061-0.055 0.092-0.083 0.031 0 0.063 0 0.095 0 0.012-0.025 0.024-0.049 0.037-0.075 0.046-0.092 0.092-0.183 0.139-0.274 0.030-0.059 0.059-0.117 0.089-0.176 0.023-0.044 0.023-0.044 0.046-0.089 0.072-0.143 0.137-0.277 0.166-0.436z"></path>
<path fill="#fafbfb" style="fill: var(--color17, #fafbfb)" d="M8.241 20.070c0.346 0.183 0.655 0.488 0.772 0.866 0.060 0.458 0.003 0.855-0.255 1.241-0.194 0.246-0.434 0.416-0.746 0.476-0.432 0.038-0.788 0.025-1.145-0.238-0.29-0.257-0.453-0.524-0.492-0.91-0.017-0.451 0.077-0.753 0.355-1.105 0.41-0.436 0.954-0.543 1.511-0.33z"></path>
<path fill="#f9fbfb" style="fill: var(--color18, #f9fbfb)" d="M24.494 20.109c0.302 0.168 0.6 0.428 0.714 0.765 0.078 0.421 0.079 0.878-0.144 1.252-0.187 0.248-0.432 0.459-0.742 0.527-0.473 0.058-0.849-0.006-1.24-0.286-0.119-0.117-0.204-0.236-0.286-0.382-0.029-0.048-0.059-0.096-0.089-0.146-0.118-0.306-0.108-0.713-0.019-1.024 0.045-0.095 0.095-0.176 0.156-0.26 0.031-0.049 0.063-0.098 0.095-0.149 0.415-0.465 1.011-0.538 1.555-0.296z"></path>
<path fill="#f9fbfb" style="fill: var(--color18, #f9fbfb)" d="M16.439 26.313c0.321 0.176 0.569 0.42 0.681 0.775 0.057 0.447 0.045 0.868-0.238 1.24-0.263 0.295-0.529 0.455-0.922 0.492-0.429 0.015-0.691-0.039-1.018-0.313-0.357-0.424-0.443-0.769-0.396-1.323 0.086-0.329 0.284-0.642 0.575-0.824 0.44-0.225 0.863-0.254 1.319-0.046z"></path>
<path fill="#fbfcf5" style="fill: var(--color19, #fbfcf5)" d="M21.75 4.757c0.071 0.026 0.142 0.052 0.214 0.078 0.035 0.013 0.071 0.026 0.107 0.039 0.1 0.036 0.2 0.070 0.301 0.103 0.059 0.020 0.118 0.040 0.179 0.060 0.053 0.017 0.106 0.035 0.161 0.053 0.143 0.066 0.199 0.114 0.275 0.252 0.026 0.202 0.023 0.298-0.089 0.471-0.127 0.127-0.166 0.146-0.345 0.162-0.22-0.015-0.375-0.080-0.573-0.171-0.303-0.133-0.59-0.226-0.917-0.281-0.151-0.046-0.216-0.109-0.317-0.229-0.076-0.152-0.072-0.312-0.048-0.477 0.279-0.376 0.682-0.197 1.052-0.060z"></path>
<path fill="#fafcf4" style="fill: var(--color20, #fafcf4)" d="M10.635 4.578c0.131 0.086 0.216 0.146 0.286 0.286 0.023 0.195 0.012 0.309-0.075 0.486-0.18 0.194-0.45 0.223-0.698 0.28-0.279 0.068-0.547 0.158-0.784 0.322-0.147 0.073-0.246 0.068-0.406 0.039-0.155-0.052-0.207-0.125-0.28-0.268-0.029-0.135-0.040-0.249 0-0.382 0.19-0.249 0.416-0.318 0.703-0.408 0.283-0.092 0.555-0.188 0.824-0.316 0.151-0.061 0.269-0.063 0.428-0.038z"></path>
<path fill="#0acd7f" style="fill: var(--color21, #0acd7f)" d="M16.024 1.097c0.256 0.090 0.403 0.235 0.525 0.477 0.004 0.143 0.006 0.284 0.005 0.427-0 0.042-0 0.084-0 0.128-0 0.135-0.001 0.27-0.001 0.405-0 0.091-0 0.183-0.001 0.274-0.001 0.224-0.001 0.449-0.002 0.673-0.016 0-0.031 0-0.048 0-0.024-0.449-0.024-0.449-0.048-0.906-0.047 0.047-0.094 0.094-0.143 0.143-0.031 0-0.063 0-0.095 0 0-0.173 0-0.346 0-0.525-0.031 0-0.063 0-0.095 0-0.031 0.094-0.063 0.189-0.095 0.286-0.036-0.016-0.073-0.031-0.11-0.048-0.128-0.056-0.128-0.056-0.271-0.048-0.016-0.047-0.031-0.094-0.048-0.143-0.031-0.016-0.063-0.031-0.095-0.048-0.016 0.031-0.031 0.063-0.048 0.095-0.031 0.047-0.063 0.094-0.095 0.143-0.031 0-0.063 0-0.095 0 0 0.031 0 0.063 0 0.095-0.047 0-0.094 0-0.143 0 0 0.189 0 0.378 0 0.572-0.016 0-0.031 0-0.048 0-0.004-0.199-0.006-0.397-0.008-0.596-0.001-0.067-0.002-0.135-0.003-0.202-0.002-0.097-0.003-0.195-0.003-0.292-0.001-0.058-0.002-0.117-0.002-0.177 0.024-0.247 0.124-0.442 0.305-0.611 0.208-0.168 0.408-0.168 0.665-0.125z"></path>
<path fill="#fbfcf4" style="fill: var(--color22, #fbfcf4)" d="M6.915 5.961c0.136 0.064 0.184 0.119 0.286 0.238 0.034 0.192 0.023 0.29-0.069 0.462-0.137 0.123-0.259 0.177-0.428 0.245-0.282 0.128-0.534 0.314-0.791 0.485-0.219 0-0.309-0.025-0.474-0.173-0.117-0.191-0.145-0.275-0.098-0.495 0.239-0.274 0.57-0.421 0.89-0.585 0.43-0.224 0.43-0.224 0.683-0.178z"></path>
<path fill="#fafdf6" style="fill: var(--color23, #fafdf6)" d="M24.826 5.923c0.248 0.018 0.44 0.16 0.645 0.29 0.117 0.070 0.221 0.12 0.35 0.164 0.197 0.073 0.36 0.156 0.456 0.349 0.020 0.361 0.020 0.361-0.095 0.525-0.147 0.098-0.236 0.124-0.412 0.12-0.195-0.043-0.344-0.16-0.507-0.272-0.119-0.079-0.232-0.136-0.363-0.191-0.198-0.083-0.383-0.174-0.483-0.373-0.027-0.195-0.007-0.275 0.095-0.447 0.143-0.125 0.143-0.125 0.313-0.164z"></path>
<path fill="#4c1a43" style="fill: var(--color24, #4c1a43)" d="M18.408 6.104c0.096 0.122 0.171 0.238 0.234 0.381 0.016 0.036 0.033 0.073 0.050 0.11 0.017 0.039 0.035 0.077 0.053 0.117 0.291 0.628 0.642 1.203 1.094 1.729-0.024 0.047-0.024 0.047-0.048 0.095-0.063-0.016-0.126-0.031-0.191-0.048 0-0.079 0-0.157 0-0.238-0.031 0-0.063 0-0.095 0 0-0.031 0-0.063 0-0.095-0.047 0-0.094 0-0.143 0-0.016-0.063-0.031-0.126-0.048-0.191-0.149 0.062-0.149 0.062-0.238 0.191-0.063-0.016-0.126-0.031-0.191-0.048-0.024-0.118-0.024-0.118-0.048-0.238-0.010 0.027-0.020 0.053-0.030 0.080-0.105 0.176-0.263 0.304-0.447 0.396-0.018 0.079-0.034 0.159-0.048 0.238-0.016 0.031-0.031 0.063-0.048 0.095 0.031 0 0.063 0 0.095 0 0.016 0.047 0.031 0.094 0.048 0.143-0.043 0.007-0.043 0.007-0.086 0.015-0.108 0.025-0.108 0.025-0.179 0.107-0.023 0.023-0.045 0.045-0.069 0.069-0.047 0-0.094 0-0.143 0 0.009-0.029 0.018-0.059 0.027-0.089 0.285-0.943 0.408-1.839 0.45-2.82z"></path>
<path fill="#f31a61" style="fill: var(--color25, #f31a61)" d="M9.49 16.453c0.016 0.031 0.031 0.063 0.048 0.095 0.11 0 0.22 0 0.334 0 0.016 0.031 0.031 0.063 0.048 0.095-0.043 0.011-0.087 0.022-0.131 0.033-0.184 0.074-0.248 0.128-0.346 0.301-0.028 0.224-0.030 0.359 0.095 0.548 0.031 0.039 0.063 0.079 0.095 0.119-0.111 0-0.223 0-0.334 0 0.014 0.033 0.028 0.067 0.042 0.101 0.018 0.043 0.035 0.087 0.054 0.132 0.018 0.043 0.035 0.086 0.054 0.131 0.042 0.114 0.042 0.114 0.042 0.209-0.159-0.027-0.224-0.076-0.334-0.191-0.031 0-0.063 0-0.095 0-0.031 0.047-0.063 0.094-0.095 0.143-0.031 0-0.063 0-0.095 0-0.024-0.071-0.024-0.071-0.048-0.143 0 0.047 0 0.094 0 0.143-0.031 0-0.063 0-0.095 0-0.048-0.54 0.115-0.978 0.453-1.398 0.099-0.112 0.201-0.217 0.31-0.319z"></path>
<path fill="#fcfaf8" style="fill: var(--color26, #fcfaf8)" d="M23.607 13.592c0.124 0.071 0.232 0.137 0.334 0.238 0.032 0.246 0.042 0.421-0.11 0.623-0.201 0.145-0.36 0.162-0.605 0.14-0.139-0.106-0.183-0.168-0.238-0.334-0.027-0.339-0.027-0.339 0.089-0.522 0.172-0.167 0.293-0.166 0.531-0.146z"></path>
<path fill="#fcf9f7" style="fill: var(--color27, #fcf9f7)" d="M9.824 16.611c0.24 0.055 0.389 0.163 0.525 0.367 0.027 0.236 0.024 0.337-0.089 0.548-0.118 0.123-0.22 0.144-0.387 0.155-0.168-0.011-0.27-0.032-0.387-0.155-0.103-0.191-0.146-0.338-0.089-0.548 0.107-0.192 0.211-0.317 0.429-0.367z"></path>
<path fill="#fbf6f6" style="fill: var(--color28, #fbf6f6)" d="M19.553 10.683c0.264 0.147 0.264 0.147 0.334 0.286 0.033 0.34 0.033 0.34-0.113 0.522-0.172 0.135-0.283 0.169-0.505 0.165-0.139-0.027-0.216-0.103-0.295-0.217-0.077-0.169-0.067-0.285-0.040-0.47 0.173-0.272 0.302-0.313 0.62-0.286z"></path>
<path fill="#4e194b" style="fill: var(--color29, #4e194b)" d="M13.353 7.964c0.016 0 0.031 0 0.048 0 0.013 0.053 0.027 0.106 0.040 0.161 0.348 1.341 1.022 2.533 2.153 3.368-0.142-0.031-0.283-0.063-0.429-0.095 0-0.031 0-0.063 0-0.095-0.031 0-0.063 0-0.095 0-0.031-0.047-0.063-0.094-0.095-0.143-0.047-0.016-0.094-0.031-0.143-0.048-0.057-0.098-0.057-0.098-0.095-0.191-0.047 0.024-0.047 0.024-0.095 0.048-0.010-0.055-0.010-0.055-0.021-0.11-0.025-0.132-0.025-0.132-0.075-0.271-0.096-0.035-0.096-0.035-0.191-0.048 0-0.031 0-0.063 0-0.095-0.071-0.024-0.071-0.024-0.143-0.048 0.016-0.047 0.031-0.094 0.048-0.143-0.047 0.024-0.047 0.024-0.095 0.048-0.016 0.047-0.031 0.094-0.048 0.143-0.11-0.016-0.22-0.031-0.334-0.048 0-0.063 0-0.126 0-0.191-0.071 0.024-0.071 0.024-0.143 0.048 0.010-0.046 0.021-0.092 0.031-0.139 0.013-0.060 0.027-0.12 0.040-0.183 0.013-0.060 0.027-0.12 0.040-0.181 0.037-0.168 0.037-0.168 0.031-0.355-0.031 0-0.063 0-0.095 0-0.006-0.030-0.012-0.061-0.018-0.092-0.010-0.032-0.020-0.065-0.030-0.098-0.031-0.016-0.063-0.031-0.095-0.048 0.016-0.031 0.031-0.063 0.048-0.095-0.031 0-0.063 0-0.095 0-0.006-0.044-0.013-0.087-0.019-0.132-0.008-0.057-0.017-0.113-0.026-0.172-0.008-0.056-0.017-0.113-0.025-0.171-0.018-0.14-0.018-0.14-0.073-0.24-0.006-0.127-0.002-0.254 0-0.382z"></path>
<path fill="#f31659" style="fill: var(--color30, #f31659)" d="M22.462 10.969c0.083 0.124 0.125 0.213 0.17 0.352 0.012 0.036 0.024 0.072 0.036 0.108 0.073 0.252 0.086 0.486 0.083 0.747-0 0.035-0 0.071-0.001 0.107-0.001 0.087-0.001 0.173-0.002 0.26-0.047 0.024-0.047 0.024-0.095 0.048 0-0.157 0-0.315 0-0.477-0.031 0-0.063 0-0.095 0 0-0.031 0-0.063 0-0.095-0.047 0.016-0.094 0.031-0.143 0.048-0.016-0.031-0.031-0.063-0.048-0.095-0.031 0.063-0.063 0.126-0.095 0.191-0.11-0.016-0.22-0.031-0.334-0.048 0 0.031 0 0.063 0 0.095-0.047 0.016-0.094 0.031-0.143 0.048 0.010-0.026 0.020-0.052 0.030-0.079 0.094-0.262 0.139-0.502 0.161-0.78 0.095 0 0.191 0 0.286 0 0-0.031 0-0.063 0-0.095 0.063 0 0.126 0 0.191 0 0-0.11 0-0.22 0-0.334z"></path>
<path fill="#f4165e" style="fill: var(--color31, #f4165e)" d="M22.891 13.735c0.091 0.181 0.062 0.407 0.068 0.606 0.011 0.159 0.011 0.159 0.118 0.238 0.033 0.021 0.066 0.041 0.1 0.062 0.062 0.091 0.062 0.091 0.11 0.188 0.017 0.032 0.033 0.064 0.050 0.097 0.036 0.115 0.022 0.176-0.017 0.288-0.031-0.016-0.063-0.031-0.095-0.048-0.1 0.019-0.1 0.019-0.191 0.048 0-0.143 0-0.143 0.048-0.191-0.031 0-0.063 0-0.095 0-0.031 0.031-0.063 0.063-0.095 0.095-0.031-0.016-0.063-0.031-0.095-0.048 0-0.031 0-0.063 0-0.095-0.094 0.047-0.189 0.094-0.286 0.143-0.025-0.425-0.001-0.805 0.191-1.192 0.102-0.112 0.102-0.112 0.191-0.191zM22.796 14.879c0.048 0.095 0.048 0.095 0.048 0.095z"></path>
<path fill="#e10848" style="fill: var(--color32, #e10848)" d="M18.075 20.554c0.212 0.319 0.203 0.63 0.191 1.002-0.047 0.016-0.094 0.031-0.143 0.048-0.016-0.047-0.031-0.094-0.048-0.143-0.031 0-0.063 0-0.095 0-0.016 0.031-0.031 0.063-0.048 0.095 0-0.031 0-0.063 0-0.095-0.031 0-0.063 0-0.095 0 0 0.047 0 0.094 0 0.143 0.031 0.016 0.063 0.031 0.095 0.048-0.167 0-0.313-0.018-0.477-0.048-0.014 0.038-0.028 0.077-0.042 0.116-0.054 0.122-0.054 0.122-0.149 0.17 0.083-0.256 0.083-0.256 0.132-0.377 0.068-0.169 0.114-0.318 0.13-0.5 0.008-0.057 0.016-0.114 0.024-0.173 0.047-0.031 0.094-0.063 0.143-0.095 0.031 0.016 0.063 0.031 0.095 0.048 0 0.031 0 0.063 0 0.095 0.079 0.016 0.157 0.031 0.238 0.048 0-0.031 0-0.063 0-0.095-0.031-0.016-0.063-0.031-0.095-0.048 0.047 0 0.094 0 0.143 0 0-0.079 0-0.157 0-0.238z"></path>
<path fill="#f51156" style="fill: var(--color33, #f51156)" d="M17.598 14.879c0.095 0.048 0.095 0.048 0.095 0.048zM18.075 14.832c0.141 0.212 0.149 0.355 0.146 0.605-0 0.056-0.001 0.113-0.001 0.17-0.001 0.043-0.001 0.086-0.002 0.131-0.031 0-0.063 0-0.095 0 0.016-0.063 0.031-0.126 0.048-0.191-0.124 0.118-0.232 0.244-0.334 0.382 0 0.031 0 0.063 0 0.095-0.092-0.033-0.092-0.033-0.191-0.095-0.036-0.125-0.036-0.125-0.048-0.238 0.031 0 0.063 0 0.095 0 0.016-0.063 0.031-0.126 0.048-0.191-0.029 0.031-0.057 0.063-0.086 0.095-0.104 0.095-0.104 0.095-0.247 0.095 0.031-0.236 0.063-0.472 0.095-0.715 0.095 0 0.191 0.003 0.286 0.009 0.143 0.005 0.143 0.005 0.233-0.080 0.018-0.024 0.035-0.047 0.054-0.072z"></path>
<path fill="#e90c50" style="fill: var(--color34, #e90c50)" d="M13.925 14.879c0.031 0 0.063 0 0.095 0 0.178 0.658 0.178 0.658 0.080 0.876-0.027 0.041-0.053 0.083-0.080 0.125-0.068-0.015-0.068-0.015-0.137-0.030-0.074-0.009-0.074-0.009-0.149-0.018-0.031 0.031-0.063 0.063-0.095 0.095-0.016-0.063-0.031-0.126-0.048-0.191-0.047 0.016-0.094 0.031-0.143 0.048 0.005 0.098 0.012 0.197 0.018 0.295 0.003 0.055 0.007 0.11 0.010 0.166 0.019 0.149 0.052 0.262 0.115 0.397-0.031 0.031-0.063 0.063-0.095 0.095-0.186-0.483-0.156-0.97-0.143-1.478 0.047 0.016 0.094 0.031 0.143 0.048 0.010-0.030 0.020-0.061 0.030-0.092 0.066-0.098 0.066-0.098 0.215-0.134 0.045-0.004 0.091-0.008 0.137-0.012 0.016-0.063 0.031-0.126 0.048-0.191z"></path>
<path fill="#faf4f5" style="fill: var(--color35, #faf4f5)" d="M14.879 19.982c0.113 0.045 0.113 0.045 0.191 0.143 0.040 0.214 0.024 0.38-0.072 0.575-0.144 0.112-0.23 0.13-0.41 0.119-0.091-0.026-0.091-0.026-0.21-0.151-0.077-0.174-0.111-0.261-0.072-0.447 0.178-0.195 0.306-0.285 0.572-0.238z"></path>
<path fill="#f21254" style="fill: var(--color36, #f21254)" d="M13.973 20.697c0.031 0.016 0.063 0.031 0.095 0.048 0.028 0.089 0.028 0.089 0.051 0.203 0.008 0.041 0.017 0.081 0.025 0.123s0.017 0.086 0.025 0.13c0.009 0.043 0.017 0.086 0.026 0.13 0.021 0.107 0.042 0.213 0.063 0.32-0.028-0.016-0.056-0.032-0.085-0.049-0.154-0.067-0.277-0.026-0.44 0.001-0.031-0.016-0.063-0.031-0.095-0.048 0-0.031 0-0.063 0-0.095-0.047 0-0.094 0-0.143 0-0.031 0.063-0.063 0.126-0.095 0.191-0.001-0.082-0.002-0.165-0.003-0.247-0.001-0.046-0.001-0.092-0.002-0.139 0.004-0.131 0.023-0.249 0.052-0.377 0.063 0.006 0.063 0.006 0.128 0.012 0.191-0.014 0.259-0.074 0.396-0.203z"></path>
<path fill="#fbf1f0" style="fill: var(--color37, #fbf1f0)" d="M14.572 13.97c0.177 0.055 0.251 0.088 0.355 0.241 0.030 0.179 0.014 0.261-0.075 0.42-0.154 0.138-0.244 0.159-0.45 0.152-0.14-0.095-0.14-0.095-0.238-0.238-0.038-0.213-0.025-0.298 0.098-0.477 0.14-0.095 0.14-0.095 0.31-0.098z"></path>
<path fill="#f21252" style="fill: var(--color38, #f21252)" d="M12.638 17.55c0.041 0.022 0.041 0.022 0.083 0.045 0.1 0.047 0.191 0.075 0.298 0.098 0.016 0.063 0.031 0.126 0.048 0.191 0.047-0.016 0.094-0.031 0.143-0.048 0.097 0.16 0.106 0.28 0.101 0.465-0.001 0.047-0.002 0.094-0.003 0.142-0.001 0.036-0.002 0.071-0.003 0.108-0.047-0.031-0.094-0.063-0.143-0.095 0.031-0.047 0.063-0.094 0.095-0.143-0.047 0-0.094 0-0.143 0 0-0.094 0-0.189 0-0.286-0.031 0-0.063 0-0.095 0 0 0.031 0 0.063 0 0.095-0.037 0.019-0.074 0.038-0.111 0.058-0.048 0.025-0.096 0.051-0.145 0.077-0.048 0.025-0.095 0.050-0.144 0.075-0.135 0.071-0.135 0.071-0.219 0.22-0.031-0.016-0.063-0.031-0.095-0.048 0.030-0.055 0.030-0.055 0.061-0.112 0.151-0.286 0.26-0.517 0.273-0.842z"></path>
<path fill="#481d38" style="fill: var(--color39, #481d38)" d="M12.399 7.63c0.048 0.095 0.048 0.095 0.009 0.232-0.117 0.308-0.277 0.47-0.516 0.697-0.117 0.114-0.117 0.114-0.188 0.25-0.069 0.107-0.069 0.107-0.173 0.146-0.029 0.003-0.057 0.006-0.086 0.009 0 0.063 0 0.126 0 0.191-0.079 0.080-0.158 0.16-0.238 0.238 0 0.047 0 0.094 0 0.143-0.065 0.021-0.065 0.021-0.131 0.042-0.15 0.047-0.15 0.047-0.259 0.11-0.086 0.039-0.086 0.039-0.229-0.009 0.037-0.033 0.074-0.067 0.112-0.101 0.655-0.596 1.191-1.225 1.7-1.949z"></path>
<path fill="#e90c4f" style="fill: var(--color40, #e90c4f)" d="M18.218 11.732c0.047 0.016 0.094 0.031 0.143 0.048-0.016 0.031-0.031 0.063-0.048 0.095 0.094-0.031 0.189-0.063 0.286-0.095 0.031 0.11 0.063 0.22 0.095 0.334-0.047 0.016-0.094 0.031-0.143 0.048-0.016 0.031-0.031 0.063-0.048 0.095-0.195-0.035-0.382-0.087-0.572-0.143 0-0.094 0-0.189 0-0.286 0.058-0.010 0.058-0.010 0.116-0.021 0.118-0.014 0.118-0.014 0.17-0.075zM17.836 11.827c0.016 0 0.031 0 0.048 0 0.014 0.053 0.028 0.106 0.042 0.161 0.039 0.173 0.039 0.173 0.149 0.268-0.047 0.024-0.047 0.024-0.095 0.048 0 0.189 0 0.378 0 0.572-0.157-0.236-0.149-0.451-0.146-0.73 0-0.060 0.001-0.12 0.001-0.181 0.001-0.068 0.001-0.068 0.002-0.138z"></path>
<path fill="#06b87e" style="fill: var(--color41, #06b87e)" d="M15.118 2.861c0.094 0.047 0.094 0.047 0.191 0.095 0.039 0.146 0.039 0.146 0.048 0.286-0.016 0.016-0.031 0.031-0.048 0.048 0.031 0.031 0.063 0.063 0.095 0.095 0.016 0.047 0.031 0.094 0.048 0.143 0.079 0.016 0.157 0.031 0.238 0.048-0.031 0.031-0.063 0.063-0.095 0.095 0.031 0.031 0.063 0.063 0.095 0.095-0.060 0.075-0.060 0.075-0.143 0.143-0.104-0.015-0.104-0.015-0.191-0.048 0.016 0.047 0.031 0.094 0.048 0.143-0.094-0.016-0.189-0.031-0.286-0.048 0-0.362 0-0.724 0-1.097z"></path>
<path fill="#eb0d50" style="fill: var(--color42, #eb0d50)" d="M26.468 14.402c0.031 0.016 0.063 0.031 0.095 0.048 0 0.031 0 0.063 0 0.095 0.029-0.010 0.059-0.020 0.089-0.030 0.050-0.009 0.050-0.009 0.101-0.018 0.031 0.031 0.063 0.063 0.095 0.095 0.016-0.031 0.031-0.063 0.048-0.095 0.063 0 0.126 0 0.191 0 0.048 0.37 0.048 0.37 0.048 0.477-0.047 0.016-0.094 0.031-0.143 0.048-0.016-0.031-0.031-0.063-0.048-0.095-0.094 0.047-0.094 0.047-0.191 0.095-0.016-0.031-0.031-0.063-0.048-0.095-0.031 0-0.063 0-0.095 0-0.031 0.063-0.063 0.126-0.095 0.191 0-0.063 0-0.126 0-0.191-0.143 0.048-0.188 0.084-0.286 0.191 0.079-0.238 0.159-0.477 0.238-0.715z"></path>
<path fill="#f7ebe8" style="fill: var(--color43, #f7ebe8)" d="M15.624 13.881c0.161 0.045 0.161 0.045 0.256 0.188-0.009 0.163-0.018 0.287-0.107 0.426-0.118 0.072-0.186 0.074-0.322 0.051-0.11-0.078-0.11-0.078-0.191-0.191-0.029-0.174-0.021-0.253 0.075-0.402 0.116-0.075 0.116-0.075 0.289-0.072z"></path>
<path fill="#f21355" style="fill: var(--color44, #f21355)" d="M8.87 17.455c0.311 0.070 0.311 0.070 0.411 0.179 0.072 0.118 0.109 0.225 0.146 0.358 0.018 0.064 0.018 0.064 0.036 0.129 0.009 0.032 0.017 0.064 0.026 0.098-0.158-0.034-0.222-0.074-0.334-0.191-0.031 0-0.063 0-0.095 0-0.047 0.071-0.047 0.071-0.095 0.143-0.031 0-0.063 0-0.095 0-0.016-0.047-0.031-0.094-0.048-0.143 0 0.047 0 0.094 0 0.143-0.031 0-0.063 0-0.095 0 0.021-0.251 0.052-0.478 0.143-0.715z"></path>
<path fill="#de0c51" style="fill: var(--color45, #de0c51)" d="M8.68 17.836c0.016 0 0.031 0 0.048 0 0 0.11 0 0.22 0 0.334 0.031 0 0.063 0 0.095 0 0-0.047 0-0.094 0-0.143 0.031 0.016 0.063 0.031 0.095 0.048-0.016 0.031-0.031 0.063-0.048 0.095 0.063-0.063 0.126-0.126 0.191-0.191 0.094 0.031 0.189 0.063 0.286 0.095 0 0.031 0 0.063 0 0.095 0.047 0.016 0.094 0.031 0.143 0.048 0.033 0.098 0.033 0.098 0.048 0.191-0.199 0.076-0.359 0.106-0.572 0.095 0.047-0.047 0.094-0.094 0.143-0.143-0.094-0.031-0.189-0.063-0.286-0.095-0.072 0.273-0.013 0.495 0.048 0.763 0.016 0.095 0.033 0.191 0.048 0.286-0.244-0.244-0.246-0.603-0.248-0.93 0.001-0.183 0.005-0.366 0.010-0.549z"></path>
<path fill="#572d23" style="fill: var(--color46, #572d23)" d="M13.258 5.961c0.052 0.156 0.052 0.268 0.051 0.432-0 0.058-0.001 0.115-0.001 0.175-0.001 0.121-0.002 0.241-0.004 0.362-0.002 0.332 0.007 0.657 0.050 0.987-0.031-0.016-0.063-0.031-0.095-0.048-0.022-0.137-0.038-0.271-0.051-0.408-0.008-0.076-0.015-0.151-0.023-0.227-0.004-0.037-0.007-0.074-0.011-0.112-0.017-0.165-0.038-0.329-0.059-0.493-0.202 0.321-0.202 0.321-0.367 0.662-0.056 0.134-0.108 0.233-0.206 0.34-0.031 0-0.063 0-0.095 0 0.079-0.209 0.176-0.406 0.277-0.605 0.017-0.034 0.034-0.067 0.051-0.102 0.034-0.067 0.068-0.134 0.102-0.202 0.062-0.122 0.123-0.245 0.184-0.367 0.066-0.131 0.131-0.262 0.197-0.393z"></path>
<path fill="#e50c4f" style="fill: var(--color47, #e50c4f)" d="M22.224 11.684c0.034 0.007 0.068 0.014 0.103 0.021 0.044 0.009 0.088 0.018 0.133 0.027 0.044 0.009 0.087 0.018 0.132 0.027 0.098 0.022 0.098 0.022 0.157 0.021 0 0.252 0 0.504 0 0.763-0.031 0.016-0.063 0.031-0.095 0.048 0-0.157 0-0.315 0-0.477-0.031 0-0.063 0-0.095 0 0-0.031 0-0.063 0-0.095-0.047 0.016-0.094 0.031-0.143 0.048-0.016-0.031-0.031-0.063-0.048-0.095-0.031 0.063-0.063 0.126-0.095 0.191-0.11-0.016-0.22-0.031-0.334-0.048 0 0.031 0 0.063 0 0.095-0.047 0.016-0.094 0.031-0.143 0.048 0.023-0.070 0.046-0.139 0.069-0.209 0.013-0.039 0.025-0.077 0.039-0.117 0.036-0.103 0.036-0.103 0.084-0.199 0.118 0.047 0.118 0.047 0.238 0.095 0-0.047 0-0.094 0-0.143z"></path>
<path fill="#49272d" style="fill: var(--color48, #49272d)" d="M9.347 10.683c-0.095 0.143-0.095 0.143-0.194 0.167-0.046 0.008-0.092 0.016-0.14 0.024-0.104 0.033-0.207 0.068-0.311 0.104-0.165 0.054-0.333 0.098-0.502 0.142-0.031 0.013-0.062 0.027-0.094 0.040-0.016 0.047-0.031 0.094-0.048 0.143-0.056-0.002-0.112-0.004-0.17-0.006-0.229-0-0.435 0.046-0.641 0.149-0.080-0.013-0.16-0.029-0.238-0.048 0-0.031 0-0.063 0-0.095-0.031-0.016-0.063-0.031-0.095-0.048 0.043-0.003 0.087-0.006 0.132-0.009 0.724-0.068 1.392-0.316 2.064-0.585 0.094-0.025 0.094-0.025 0.237 0.022z"></path>
<path fill="#f8eaed" style="fill: var(--color49, #f8eaed)" d="M24.656 13.544c0.089 0.054 0.089 0.054 0.143 0.143 0.020 0.194 0.015 0.264-0.095 0.429-0.174 0.019-0.291 0.021-0.45-0.057-0.075-0.086-0.075-0.086-0.098-0.203 0.055-0.281 0.233-0.353 0.501-0.313z"></path>
<path fill="#4c1a41" style="fill: var(--color50, #4c1a41)" d="M13.353 7.964c0.016 0 0.031 0 0.048 0 0.013 0.053 0.027 0.106 0.040 0.161 0.184 0.71 0.45 1.349 0.818 1.985-0.031 0-0.063 0-0.095 0 0-0.031 0-0.063 0-0.095-0.053-0.021-0.053-0.021-0.107-0.042-0.109-0.045-0.216-0.096-0.322-0.149 0.016-0.142 0.031-0.283 0.048-0.429-0.031 0-0.063 0-0.095 0-0.006-0.030-0.012-0.061-0.018-0.092-0.010-0.032-0.020-0.065-0.030-0.098-0.031-0.016-0.063-0.031-0.095-0.048 0.016-0.031 0.031-0.063 0.048-0.095-0.031 0-0.063 0-0.095 0-0.006-0.044-0.013-0.087-0.019-0.132-0.008-0.057-0.017-0.113-0.026-0.172-0.008-0.056-0.017-0.113-0.025-0.171-0.018-0.14-0.018-0.14-0.073-0.24-0.006-0.127-0.002-0.254 0-0.382z"></path>
<path fill="#f11152" style="fill: var(--color51, #f11152)" d="M18.075 20.554c0.191 0.287 0.204 0.572 0.191 0.906-0.031-0.063-0.063-0.126-0.095-0.191-0.038 0.001-0.077 0.002-0.116 0.003-0.122-0.003-0.122-0.003-0.17-0.051-0.047 0.047-0.094 0.094-0.143 0.143-0.016-0.063-0.031-0.126-0.048-0.191 0.047-0.031 0.094-0.063 0.143-0.095-0.142-0.024-0.142-0.024-0.286-0.048 0.018-0.116 0.018-0.116 0.048-0.238 0.031-0.016 0.063-0.031 0.095-0.048 0.031 0.016 0.063 0.031 0.095 0.048 0 0.031 0 0.063 0 0.095 0.079 0.016 0.157 0.031 0.238 0.048 0-0.031 0-0.063 0-0.095-0.031-0.016-0.063-0.031-0.095-0.048 0.047 0 0.094 0 0.143 0 0-0.079 0-0.157 0-0.238z"></path>
<path fill="#ddfdf6" style="fill: var(--color52, #ddfdf6)" d="M14.975 1.812c0.031 0 0.063 0 0.095 0 0 0.897 0 1.794 0 2.718-0.191-0.095-0.191-0.095-0.238-0.191 0.063 0 0.126 0 0.191 0-0.024-0.071-0.024-0.071-0.048-0.143-0.004-0.078-0.006-0.157-0.005-0.235 0-0.072 0-0.072 0-0.145 0-0.051 0.001-0.103 0.001-0.156s0-0.105 0-0.16c0-0.169 0.001-0.337 0.001-0.506 0-0.114 0-0.228 0.001-0.343 0.001-0.28 0.001-0.56 0.002-0.841z"></path>
<path fill="#462031" style="fill: var(--color53, #462031)" d="M18.408 6.104c0.116 0.145 0.197 0.29 0.274 0.459 0.021 0.046 0.043 0.092 0.065 0.139 0.014 0.039 0.028 0.077 0.042 0.117-0.016 0.031-0.031 0.063-0.048 0.095-0.031-0.016-0.063-0.031-0.095-0.048-0.006 0.029-0.012 0.059-0.018 0.089-0.030 0.101-0.030 0.101-0.125 0.197-0.032 0.094-0.032 0.094-0.054 0.197-0.014 0.061-0.028 0.122-0.042 0.185-0.016 0-0.031 0-0.048 0-0.006-0.48 0.006-0.952 0.048-1.431z"></path>
<path fill="#08a283" style="fill: var(--color54, #08a283)" d="M15.118 4.531c0.016 0.031 0.031 0.063 0.048 0.095 0.063-0.016 0.126-0.031 0.191-0.048 0.016 0.031 0.031 0.063 0.048 0.095-0.031 0-0.063 0-0.095 0 0 0.031 0 0.063 0 0.095 0.031 0.016 0.063 0.031 0.095 0.048-0.031 0-0.063 0-0.095 0-0.016 0.079-0.031 0.157-0.048 0.238 0.031 0 0.063 0 0.095 0-0.016 0.063-0.031 0.126-0.048 0.191 0.031 0.016 0.063 0.031 0.095 0.048-0.047 0-0.094 0-0.143 0 0 0.236 0 0.472 0 0.715-0.181-0.181-0.196-0.451-0.202-0.697 0-0.075 0.001-0.149 0.002-0.224 0-0.038 0-0.076 0-0.115 0.001-0.159 0.006-0.29 0.057-0.442z"></path>
<path fill="#eb0a4f" style="fill: var(--color55, #eb0a4f)" d="M17.872 15.273c0.060 0.083 0.060 0.083 0.107 0.227 0.031 0.016 0.063 0.031 0.095 0.048-0.058 0.164-0.114 0.262-0.238 0.382 0 0.031 0 0.063 0 0.095-0.092-0.033-0.092-0.033-0.191-0.095-0.036-0.125-0.036-0.125-0.048-0.238 0.031 0 0.063 0 0.095 0 0.016-0.063 0.031-0.126 0.048-0.191-0.029 0.031-0.057 0.063-0.086 0.095-0.104 0.095-0.104 0.095-0.247 0.095 0.047-0.142 0.094-0.283 0.143-0.429 0.215-0.064 0.215-0.064 0.322 0.012z"></path>
<path fill="#521a4d" style="fill: var(--color56, #521a4d)" d="M17.884 9.061c0.016 0.047 0.031 0.094 0.048 0.143 0.157 0 0.315 0 0.477 0 0.016 0.047 0.031 0.094 0.048 0.143-0.029 0.005-0.057 0.010-0.086 0.015-0.177 0.056-0.242 0.167-0.343 0.319-0.037-0.001-0.075-0.002-0.113-0.003-0.134-0.010-0.134-0.010-0.235 0.098-0.027 0.031-0.053 0.063-0.080 0.095-0.031-0.016-0.063-0.031-0.095-0.048 0.126-0.252 0.252-0.504 0.382-0.763z"></path>
<path fill="#45292e" style="fill: var(--color57, #45292e)" d="M6.724 9.872c-0.062 0.024-0.123 0.048-0.185 0.072-0.034 0.013-0.069 0.027-0.104 0.040-0.093 0.031-0.093 0.031-0.188 0.031-0.016 0.047-0.031 0.094-0.048 0.143-0.126 0.040-0.247 0.071-0.376 0.098-0.278 0.059-0.278 0.059-0.531 0.188-0.111 0.033-0.222 0.065-0.334 0.095-0.047 0.024-0.047 0.024-0.095 0.048-0.095 0.016-0.191 0.032-0.286 0.048-0.031 0.016-0.063 0.031-0.095 0.048-0.111 0-0.223 0-0.334 0-0.031 0.016-0.063 0.031-0.095 0.048-0.031-0.031-0.063-0.063-0.095-0.095 0.028-0.006 0.057-0.013 0.086-0.019 0.814-0.187 1.61-0.421 2.378-0.751 0.125-0.046 0.179-0.038 0.302 0.007z"></path>
<path fill="#e3386f" style="fill: var(--color58, #e3386f)" d="M15.309 20.030c0.060-0.001 0.12-0.002 0.182-0.003 0.034-0.001 0.068-0.001 0.102-0.002 0.097 0.005 0.097 0.005 0.241 0.052-0.016 0.094-0.031 0.189-0.048 0.286-0.047 0.016-0.094 0.031-0.143 0.048 0 0.031 0 0.063 0 0.095-0.112-0.012-0.223-0.028-0.334-0.048-0.016-0.031-0.031-0.063-0.048-0.095 0.031 0 0.063 0 0.095 0-0.016-0.11-0.031-0.22-0.048-0.334zM15.070 20.173c0.031 0.016 0.063 0.031 0.095 0.048 0.036 0.137 0.036 0.137 0.048 0.286-0.047 0.071-0.047 0.071-0.095 0.143-0.031 0-0.063 0-0.095 0 0.016-0.157 0.031-0.315 0.048-0.477z"></path>
<path fill="#4a244b" style="fill: var(--color59, #4a244b)" d="M8.918 12.781c0.106 0.133 0.182 0.263 0.253 0.417 0.326 0.655 0.822 1.013 1.511 1.252 0.063 0.017 0.127 0.033 0.191 0.048-0.024 0.047-0.024 0.047-0.048 0.095-0.131-0.022-0.244-0.050-0.367-0.101-0.036-0.014-0.073-0.028-0.11-0.042-0.047 0.024-0.047 0.024-0.095 0.048-0.027-0.030-0.027-0.030-0.056-0.060-0.107-0.102-0.223-0.185-0.344-0.271-0.498-0.356-0.498-0.356-0.545-0.516-0.003-0.035-0.006-0.071-0.009-0.107-0.031 0-0.063 0-0.095 0-0.217-0.248-0.278-0.436-0.286-0.763z"></path>
<path fill="#461b3f" style="fill: var(--color60, #461b3f)" d="M19.887 8.584c0.315 0.256 0.596 0.544 0.881 0.833 0.103 0.104 0.207 0.208 0.311 0.312-0.173-0.016-0.346-0.031-0.525-0.048 0-0.094 0-0.189 0-0.286-0.031 0-0.063 0-0.095 0-0.005-0.030-0.010-0.061-0.015-0.092-0.011-0.032-0.022-0.065-0.033-0.098-0.047-0.016-0.094-0.031-0.143-0.048-0.016-0.031-0.031-0.063-0.048-0.095-0.029-0.013-0.059-0.026-0.089-0.039-0.134-0.075-0.178-0.158-0.244-0.295 0-0.047 0-0.094 0-0.143z"></path>
<path fill="#f31256" style="fill: var(--color61, #f31256)" d="M13.925 14.879c0.031 0 0.063 0 0.095 0 0.031 0.157 0.063 0.315 0.095 0.477-0.031 0-0.063 0-0.095 0-0.016 0.063-0.031 0.126-0.048 0.191-0.201 0.009-0.342-0.009-0.525-0.095 0.016-0.047 0.031-0.094 0.048-0.143 0.011-0.033 0.022-0.067 0.033-0.101 0.063-0.089 0.063-0.089 0.212-0.125 0.045-0.004 0.091-0.008 0.137-0.012 0.016-0.063 0.031-0.126 0.048-0.191z"></path>
<path fill="#e80c4e" style="fill: var(--color62, #e80c4e)" d="M22.844 14.689c0.047 0.031 0.094 0.063 0.143 0.095 0.103-0.015 0.103-0.015 0.191-0.048 0.194 0.258 0.194 0.258 0.179 0.399-0.012 0.026-0.024 0.051-0.036 0.078-0.031-0.016-0.063-0.031-0.095-0.048-0.1 0.019-0.1 0.019-0.191 0.048 0-0.143 0-0.143 0.048-0.191-0.031 0-0.063 0-0.095 0-0.031 0.031-0.063 0.063-0.095 0.095-0.031-0.016-0.063-0.031-0.095-0.048 0-0.031 0-0.063 0-0.095-0.094 0.047-0.189 0.094-0.286 0.143 0.042-0.227 0.042-0.227 0.095-0.334 0.113-0.060 0.113-0.060 0.238-0.095zM22.796 14.879c0.048 0.095 0.048 0.095 0.048 0.095z"></path>
<path fill="#f0306f" style="fill: var(--color63, #f0306f)" d="M9.49 16.548c0.126 0 0.252 0 0.382 0 0.016 0.031 0.031 0.063 0.048 0.095-0.043 0.011-0.087 0.022-0.131 0.033-0.184 0.074-0.248 0.128-0.346 0.301-0.028 0.224-0.030 0.359 0.095 0.548 0.031 0.039 0.063 0.079 0.095 0.119-0.177 0.010-0.228 0.007-0.382-0.095-0.016-0.138-0.016-0.138-0.012-0.304 0.001-0.054 0.001-0.109 0.002-0.165 0.015-0.238 0.015-0.238 0.057-0.342 0.047-0.016 0.094-0.031 0.143-0.048 0.016-0.047 0.031-0.094 0.048-0.143z"></path>
<path fill="#491a2d" style="fill: var(--color64, #491a2d)" d="M14.259 10.158c0.162 0.157 0.307 0.318 0.447 0.495 0.268 0.33 0.507 0.598 0.888 0.793-0.18 0.060-0.256 0.018-0.429-0.048 0-0.031 0-0.063 0-0.095-0.031 0-0.063 0-0.095 0-0.031-0.047-0.063-0.094-0.095-0.143-0.047-0.016-0.094-0.031-0.143-0.048-0.057-0.098-0.057-0.098-0.095-0.191-0.031 0.016-0.063 0.031-0.095 0.048-0.007-0.036-0.014-0.073-0.021-0.11-0.025-0.132-0.025-0.132-0.075-0.271-0.096-0.035-0.096-0.035-0.191-0.048 0-0.031 0-0.063 0-0.095-0.047-0.016-0.094-0.031-0.143-0.048 0.016-0.079 0.031-0.157 0.048-0.238z"></path>
<path fill="#1dcc90" style="fill: var(--color65, #1dcc90)" d="M15.261 1.335c0.047 0.146 0.047 0.236 0 0.382 0.047 0.016 0.094 0.031 0.143 0.048-0.031 0.11-0.063 0.22-0.095 0.334-0.031 0-0.063 0-0.095 0-0.042 0.127-0.056 0.214-0.063 0.345-0.002 0.038-0.004 0.077-0.006 0.116s-0.004 0.079-0.006 0.12c-0.002 0.040-0.004 0.081-0.006 0.122-0.005 0.099-0.010 0.199-0.015 0.298-0.016 0-0.031 0-0.048 0-0.004-0.199-0.006-0.397-0.008-0.596-0.001-0.067-0.002-0.135-0.003-0.202-0.002-0.097-0.003-0.195-0.003-0.292-0.001-0.058-0.002-0.117-0.002-0.177 0.019-0.188 0.069-0.36 0.207-0.498z"></path>
<path fill="#e60a4c" style="fill: var(--color66, #e60a4c)" d="M13.449 21.174c0.143 0.048 0.286 0.095 0.429 0.143 0.016-0.031 0.031-0.063 0.048-0.095 0.079 0.016 0.157 0.031 0.238 0.048 0.031 0.126 0.063 0.252 0.095 0.382-0.025-0.017-0.049-0.033-0.075-0.051-0.16-0.062-0.283-0.025-0.45 0.003-0.031-0.016-0.063-0.031-0.095-0.048 0-0.031 0-0.063 0-0.095-0.047 0-0.094 0-0.143 0-0.031 0.063-0.063 0.126-0.095 0.191-0.006-0.316-0.006-0.316 0.048-0.477z"></path>
<path fill="#43253b" style="fill: var(--color67, #43253b)" d="M26.373 10.349c0.376 0.073 0.75 0.152 1.124 0.235 0.057 0.012 0.113 0.024 0.171 0.036 0.054 0.012 0.107 0.024 0.163 0.036 0.073 0.016 0.073 0.016 0.147 0.032 0.055 0.020 0.055 0.020 0.112 0.041 0.052 0.157 0.052 0.274 0.051 0.438-0 0.052-0.001 0.104-0.001 0.157-0.001 0.040-0.001 0.079-0.002 0.12-0.016 0-0.031 0-0.048 0-0.005-0.036-0.009-0.072-0.014-0.11-0.007-0.047-0.014-0.095-0.022-0.144-0.007-0.047-0.013-0.094-0.020-0.143-0.047-0.153-0.093-0.194-0.23-0.272-0.156-0.035-0.31-0.050-0.468-0.069-0.050-0.009-0.1-0.018-0.152-0.027-0.016-0.031-0.031-0.063-0.048-0.095-0.159-0.004-0.277-0.003-0.429 0.048-0.016-0.063-0.031-0.126-0.048-0.191-0.094 0-0.189 0-0.286 0 0-0.031 0-0.063 0-0.095z"></path>
<path fill="#e52e65" style="fill: var(--color68, #e52e65)" d="M22.987 13.496c0.031 0.031 0.063 0.063 0.095 0.095 0.047-0.016 0.094-0.031 0.143-0.048 0.226-0.014 0.447-0.009 0.668 0.048-0.016 0.063-0.031 0.126-0.048 0.191-0.049-0.035-0.049-0.035-0.098-0.072-0.176-0.090-0.279-0.099-0.474-0.072-0.139 0.094-0.222 0.162-0.258 0.331-0.009 0.215 0.033 0.351 0.163 0.528 0.016 0.031 0.031 0.063 0.048 0.095-0.233-0.042-0.233-0.042-0.286-0.095-0.010-0.109-0.018-0.218-0.024-0.328-0.013-0.246-0.013-0.246-0.072-0.483 0.069-0.104 0.069-0.104 0.143-0.191z"></path>
<path fill="#670e3e" style="fill: var(--color69, #670e3e)" d="M18.218 15.118c0.031 0.016 0.063 0.031 0.095 0.048 0.012 0.211 0.023 0.421 0.033 0.632 0.003 0.060 0.007 0.12 0.011 0.181 0.003 0.057 0.005 0.115 0.008 0.174 0.003 0.053 0.006 0.106 0.008 0.16-0.014 0.16-0.052 0.212-0.155 0.331-0.033 0.079-0.065 0.158-0.098 0.238-0.088 0.186-0.196 0.37-0.331 0.525-0.047 0-0.094 0-0.143 0 0.022-0.029 0.044-0.058 0.066-0.088 0.404-0.552 0.515-1.020 0.509-1.695-0-0.049-0-0.098-0.001-0.148-0.001-0.12-0.001-0.239-0.002-0.359z"></path>
<path fill="#3b233d" style="fill: var(--color70, #3b233d)" d="M18.17 25.276c0.122 0.113 0.211 0.237 0.304 0.376 0.294 0.423 0.661 0.697 1.127 0.912-0.016 0.031-0.031 0.063-0.048 0.095-0.047 0-0.094 0-0.143 0-0.016-0.031-0.031-0.063-0.048-0.095-0.082-0.049-0.082-0.049-0.179-0.092-0.035-0.017-0.069-0.034-0.105-0.051-0.032-0.016-0.065-0.031-0.098-0.047-0.225-0.112-0.381-0.272-0.525-0.477 0-0.031 0-0.063 0-0.095-0.031 0-0.063 0-0.095 0-0.049-0.079-0.097-0.158-0.143-0.238-0.016 0-0.031 0-0.048 0 0-0.094 0-0.189 0-0.286z"></path>
<path fill="#3c1d2d" style="fill: var(--color71, #3c1d2d)" d="M24.417 9.538c0.26 0.081 0.507 0.186 0.757 0.292 0.042 0.018 0.084 0.036 0.127 0.054 0.103 0.044 0.205 0.087 0.308 0.131-0.031 0.031-0.063 0.063-0.095 0.095-0.031-0.016-0.063-0.031-0.095-0.048-0.047 0.071-0.047 0.071-0.095 0.143 0-0.063 0-0.126 0-0.191-0.209-0.091-0.209-0.091-0.429-0.143-0.047 0.031-0.094 0.063-0.143 0.095-0.047 0.016-0.094 0.031-0.143 0.048-0.063-0.157-0.126-0.315-0.191-0.477z"></path>
<path fill="#5b0b36" style="fill: var(--color72, #5b0b36)" d="M18.075 22.557c0.031 0.031 0.063 0.063 0.095 0.095-0.035 0.067-0.071 0.133-0.107 0.2-0.030 0.056-0.030 0.056-0.060 0.112-0.258 0.427-0.737 0.859-1.215 1.023-0.108-0.018-0.108-0.018-0.191-0.048 0.035-0.015 0.070-0.030 0.107-0.046 0.628-0.289 1.070-0.718 1.372-1.337z"></path>
<path fill="#3e253e" style="fill: var(--color73, #3e253e)" d="M18.599 19.505c0.032 0.032 0.065 0.065 0.098 0.098 0.022 0.022 0.045 0.044 0.068 0.066 0.072 0.074 0.072 0.074 0.136 0.151 0.276 0.317 0.659 0.466 1.034 0.639-0.031 0.031-0.063 0.063-0.095 0.095-0.101-0.018-0.101-0.018-0.191-0.048 0-0.031 0-0.063 0-0.095-0.034-0.005-0.069-0.010-0.104-0.015-0.147-0.036-0.25-0.090-0.379-0.17-0.040-0.024-0.081-0.049-0.123-0.074-0.098-0.067-0.172-0.132-0.253-0.218-0.043-0.038-0.087-0.077-0.131-0.116-0.035-0.040-0.071-0.081-0.107-0.122 0.009-0.11 0.009-0.11 0.048-0.191z"></path>
<path fill="#432929" style="fill: var(--color74, #432929)" d="M7.154 9.538c0.016 0.031 0.031 0.063 0.048 0.095-0.042 0.115-0.086 0.225-0.134 0.337-0.16 0.388-0.295 0.717-0.2 1.142 0.016 0.031 0.031 0.063 0.048 0.095-0.063-0.016-0.126-0.031-0.191-0.048-0.010-0.31 0.021-0.579 0.095-0.879 0.067-0.249 0.067-0.249 0.095-0.504-0.063-0.016-0.126-0.031-0.191-0.048 0.142-0.063 0.283-0.126 0.429-0.191z"></path>
<path fill="#13a782" style="fill: var(--color75, #13a782)" d="M16.501 3.911c0.016 0 0.031 0 0.048 0 0 0.567 0 1.133 0 1.717-0.016 0-0.031 0-0.048 0-0.016-0.22-0.031-0.441-0.048-0.668-0.016 0-0.031 0-0.048 0-0.003-0.112-0.004-0.224-0.006-0.337-0.001-0.063-0.002-0.125-0.003-0.189 0.010-0.195 0.044-0.339 0.105-0.523z"></path>
<path fill="#11ad83" style="fill: var(--color76, #11ad83)" d="M15.070 3.1c0.016 0 0.031 0 0.048 0 0.001 0.057 0.002 0.114 0.004 0.172 0.003 0.075 0.005 0.149 0.008 0.224 0.001 0.037 0.001 0.075 0.002 0.114 0.004 0.223 0.004 0.223 0.131 0.398 0.031 0.015 0.061 0.030 0.093 0.046-0.013 0.063-0.027 0.125-0.042 0.188-0.008 0.035-0.015 0.070-0.023 0.106-0.030 0.088-0.030 0.088-0.126 0.136-0.031 0.063-0.063 0.126-0.095 0.191 0-0.519 0-1.039 0-1.574z"></path>
<path fill="#401e39" style="fill: var(--color77, #401e39)" d="M17.216 10.301c0.016 0.047 0.031 0.094 0.048 0.143-0.056 0.072-0.113 0.143-0.175 0.21-0.067 0.074-0.067 0.074-0.107 0.168-0.063 0.121-0.14 0.202-0.236 0.298-0.032 0.033-0.065 0.066-0.098 0.1-0.1 0.083-0.163 0.11-0.29 0.129 0.084-0.168 0.188-0.288 0.322-0.417 0.201-0.195 0.37-0.407 0.537-0.632z"></path>
<path fill="#f91857" style="fill: var(--color78, #f91857)" d="M13.162 17.359c0.156 0.234 0.148 0.397 0.143 0.668-0.095-0.048-0.095-0.048-0.143-0.143-0.031 0-0.063 0-0.095 0-0.006-0.044-0.006-0.044-0.012-0.089-0.027-0.11-0.027-0.11-0.134-0.161-0.030-0.012-0.061-0.024-0.092-0.036 0.031-0.016 0.063-0.031 0.095-0.048 0.016-0.031 0.031-0.063 0.048-0.095 0.098-0.054 0.098-0.054 0.191-0.095z"></path>
<path fill="#5c0e3f" style="fill: var(--color79, #5c0e3f)" d="M26.849 16.167c0.048 0.143 0.048 0.143 0 0.286-0.078 0.080-0.158 0.16-0.238 0.238-0.1 0.137-0.1 0.137-0.143 0.286-0.031-0.047-0.063-0.094-0.095-0.143-0.037 0.031-0.075 0.063-0.113 0.095-0.125 0.095-0.125 0.095-0.221 0.095-0.016 0.031-0.031 0.063-0.048 0.095-0.094 0.035-0.19 0.067-0.286 0.095-0.031-0.031-0.063-0.063-0.095-0.095 0.044-0.020 0.088-0.040 0.133-0.061 0.461-0.218 0.843-0.441 1.107-0.892z"></path>
<path fill="#f71558" style="fill: var(--color80, #f71558)" d="M26.611 14.021c0.016 0.031 0.031 0.063 0.048 0.095 0.031 0 0.063 0 0.095 0 0 0.031 0 0.063 0 0.095 0.031 0 0.063 0 0.095 0 0 0.031 0 0.063 0 0.095 0.031 0 0.063 0 0.095 0 0 0.031 0 0.063 0 0.095-0.031 0-0.063 0-0.095 0 0.031 0.063 0.063 0.126 0.095 0.191-0.031 0.031-0.063 0.063-0.095 0.095-0.031-0.047-0.063-0.094-0.095-0.143-0.047 0.024-0.047 0.024-0.095 0.048-0.079-0.079-0.157-0.157-0.238-0.238 0.031-0.047 0.063-0.094 0.095-0.143 0.047 0.016 0.094 0.031 0.143 0.048 0-0.031 0-0.063 0-0.095-0.047-0.016-0.094-0.031-0.143-0.048 0.031-0.031 0.063-0.063 0.095-0.095z"></path>
<path fill="#e60b4b" style="fill: var(--color81, #e60b4b)" d="M12.876 17.836c0.047 0.016 0.094 0.031 0.143 0.048-0.063 0.202-0.129 0.28-0.31 0.387-0.149 0.089-0.211 0.132-0.31 0.28-0.031-0.016-0.063-0.031-0.095-0.048 0.094-0.173 0.189-0.346 0.286-0.525 0.063 0 0.126 0 0.191 0 0.031-0.047 0.063-0.094 0.095-0.143z"></path>
<path fill="#4f2052" style="fill: var(--color82, #4f2052)" d="M4.531 15.881c0.133 0.12 0.219 0.256 0.313 0.408 0.116 0.188 0.116 0.188 0.259 0.355-0.018 0.101-0.018 0.101-0.048 0.191-0.035-0.043-0.071-0.087-0.107-0.131-0.183-0.227-0.183-0.227-0.417-0.393 0.009-0.027 0.018-0.053 0.027-0.080 0.024-0.129 0.005-0.222-0.027-0.349z"></path>
<path fill="#f9d122" style="fill: var(--color83, #f9d122)" d="M4.531 5.723c0.031 0.016 0.063 0.031 0.095 0.048-0.083 0.085-0.167 0.169-0.25 0.253-0.023 0.024-0.047 0.048-0.071 0.072-0.101 0.102-0.199 0.196-0.316 0.279-0.026 0.021-0.052 0.042-0.078 0.064 0 0.047 0 0.094 0 0.143-0.134 0.107-0.134 0.107-0.286 0.191-0.047-0.016-0.094-0.031-0.143-0.048 0.325-0.329 0.648-0.656 1.002-0.954 0.016-0.016 0.031-0.031 0.048-0.048z"></path>
<path fill="#f21155" style="fill: var(--color84, #f21155)" d="M23.016 14.507c0.161 0.086 0.161 0.086 0.206 0.191 0.001 0.029 0.002 0.057 0.003 0.086-0.137 0.030-0.137 0.030-0.286 0.048-0.031-0.031-0.063-0.063-0.095-0.095-0.123 0.008-0.123 0.008-0.238 0.048-0.016 0.031-0.031 0.063-0.048 0.095 0.036-0.274 0.036-0.274 0.143-0.382 0.143-0.048 0.143-0.048 0.316 0.009z"></path>
<path fill="#d80f53" style="fill: var(--color85, #d80f53)" d="M17.836 11.827c0.016 0 0.031 0 0.048 0 0.014 0.053 0.028 0.106 0.042 0.161 0.039 0.173 0.039 0.173 0.149 0.268-0.047 0.024-0.047 0.024-0.095 0.048 0 0.189 0 0.378 0 0.572-0.157-0.236-0.149-0.451-0.146-0.73 0-0.060 0.001-0.12 0.001-0.181 0.001-0.068 0.001-0.068 0.002-0.138zM17.931 11.827c0.118 0.024 0.118 0.024 0.238 0.048 0 0.047 0 0.094 0 0.143-0.079 0.031-0.157 0.063-0.238 0.095 0-0.094 0-0.189 0-0.286z"></path>
<path fill="#3c1d2f" style="fill: var(--color86, #3c1d2f)" d="M24.846 10.73c0.016 0 0.031 0 0.048 0-0.005 0.069-0.012 0.137-0.018 0.206-0.003 0.038-0.007 0.076-0.010 0.116-0.020 0.108-0.020 0.108-0.115 0.251-0.307 0.106-0.569 0.13-0.872 0.002-0.093-0.046-0.183-0.094-0.273-0.145 0.168-0.052 0.258-0.029 0.426 0.024 0.188 0.044 0.384 0.046 0.576 0.023 0.157-0.105 0.163-0.119 0.2-0.292 0.013-0.061 0.026-0.122 0.039-0.185z"></path>
<path fill="#451a47" style="fill: var(--color87, #451a47)" d="M13.162 7.392c0.016 0 0.031 0 0.048 0 0.006 0.034 0.013 0.068 0.019 0.103 0.008 0.044 0.017 0.088 0.026 0.133 0.008 0.044 0.017 0.087 0.025 0.132 0.015 0.107 0.015 0.107 0.073 0.157 0.010 0.070 0.018 0.141 0.024 0.212 0.014 0.162 0.014 0.162 0.072 0.313 0.006 0.127 0.002 0.254 0 0.382-0.016-0.047-0.031-0.094-0.048-0.143-0.047-0.016-0.094-0.031-0.143-0.048 0.016-0.016 0.031-0.031 0.048-0.048 0.003-0.088 0.004-0.177 0.003-0.265-0-0.048-0.001-0.097-0.001-0.146-0.001-0.037-0.001-0.075-0.002-0.113-0.047-0.016-0.094-0.031-0.143-0.048 0-0.205 0-0.409 0-0.62z"></path>
<path fill="#2f976f" style="fill: var(--color88, #2f976f)" d="M15.070 4.674c0.047 0.024 0.047 0.024 0.095 0.048 0.018 0.146 0.018 0.146 0.027 0.334 0.011 0.212 0.023 0.422 0.051 0.632 0.018 0.179 0.018 0.179-0.030 0.322-0.184-0.435-0.157-0.873-0.143-1.335z"></path>
<path fill="#720d3f" style="fill: var(--color89, #720d3f)" d="M18.17 20.697c0.095 0.048 0.095 0.048 0.124 0.13 0.039 0.22 0.044 0.443 0.055 0.666 0.003 0.050 0.007 0.1 0.010 0.152 0.015 0.308 0.006 0.586-0.141 0.864-0.047 0.024-0.047 0.024-0.095 0.048 0.043-0.268 0.043-0.268 0.073-0.376 0.026-0.115 0.029-0.219 0.029-0.337 0-0.068 0-0.068 0-0.137-0-0.047-0-0.094-0.001-0.142 0-0.046 0-0.093 0.001-0.141-0-0.247-0.011-0.483-0.054-0.727z"></path>
<path fill="#4e1e31" style="fill: var(--color90, #4e1e31)" d="M12.399 7.63c0.048 0.095 0.048 0.095 0.009 0.232-0.094 0.248-0.185 0.401-0.39 0.578-0.134 0.039-0.134 0.039-0.238 0.048 0.017-0.022 0.034-0.044 0.051-0.067 0.196-0.259 0.384-0.524 0.569-0.792z"></path>
<path fill="#610c39" style="fill: var(--color91, #610c39)" d="M13.21 19.028c0.054 0.163 0.048 0.191-0.018 0.364-0.193 0.357-0.486 0.677-0.841 0.876-0.016-0.031-0.031-0.063-0.048-0.095 0.047-0.029 0.094-0.059 0.143-0.089 0.367-0.264 0.609-0.635 0.763-1.055z"></path>
<path fill="#e4b521" style="fill: var(--color92, #e4b521)" d="M29.854 9.013c0.164 0.153 0.26 0.331 0.37 0.525 0.020 0.035 0.040 0.069 0.061 0.105 0.028 0.050 0.028 0.050 0.057 0.101 0.017 0.030 0.035 0.061 0.052 0.092 0.032 0.084 0.032 0.084-0.016 0.227-0.047-0.016-0.094-0.031-0.143-0.048-0.005-0.036-0.010-0.073-0.015-0.11-0.021-0.13-0.021-0.13-0.107-0.197-0.069-0.075-0.069-0.075-0.078-0.227 0.004-0.066 0.004-0.066 0.009-0.134-0.047-0.016-0.094-0.031-0.143-0.048-0.016-0.094-0.031-0.189-0.048-0.286z"></path>
<path fill="#501f2f" style="fill: var(--color93, #501f2f)" d="M19.887 8.584c0.27 0.224 0.518 0.465 0.763 0.715-0.047 0.024-0.047 0.024-0.095 0.048-0.047-0.016-0.094-0.031-0.143-0.048 0-0.031 0-0.063 0-0.095-0.047-0.016-0.094-0.031-0.143-0.048-0.016-0.031-0.031-0.063-0.048-0.095-0.029-0.013-0.059-0.026-0.089-0.039-0.134-0.075-0.178-0.158-0.244-0.295 0-0.047 0-0.094 0-0.143z"></path>
<path fill="#e72b6c" style="fill: var(--color94, #e72b6c)" d="M14.021 13.878c0.071 0.047 0.071 0.047 0.143 0.095 0.016-0.031 0.031-0.063 0.048-0.095 0.079 0.005 0.157 0.011 0.235 0.018 0.066 0.005 0.066 0.005 0.132 0.010 0.054 0.010 0.054 0.010 0.109 0.020 0.016 0.031 0.031 0.063 0.048 0.095-0.051-0.004-0.102-0.008-0.155-0.012-0.176-0.003-0.176-0.003-0.292 0.086-0.099 0.149-0.112 0.274-0.125 0.45-0.031-0.016-0.063-0.031-0.095-0.048 0.016-0.126 0.031-0.252 0.048-0.382-0.031 0-0.063 0-0.095 0-0.027-0.092-0.027-0.092-0.048-0.191 0.016-0.016 0.031-0.031 0.048-0.048z"></path>
<path fill="#f5c721" style="fill: var(--color95, #f5c721)" d="M2.909 7.344c0.016 0.047 0.031 0.094 0.048 0.143-0.086 0.119-0.086 0.119-0.206 0.253-0.164 0.184-0.242 0.325-0.319 0.557-0.047 0.016-0.094 0.031-0.143 0.048-0.065 0.062-0.129 0.125-0.191 0.191 0.077-0.243 0.225-0.424 0.379-0.623 0.026-0.034 0.051-0.067 0.078-0.102 0.049-0.064 0.098-0.129 0.147-0.193 0.070-0.091 0.139-0.182 0.207-0.274z"></path>
<path fill="#492540" style="fill: var(--color96, #492540)" d="M11.175 9.262c0.026 0.012 0.053 0.024 0.080 0.037-0.016 0.079-0.031 0.157-0.048 0.238-0.043 0.014-0.087 0.028-0.131 0.042-0.15 0.047-0.15 0.047-0.259 0.11-0.086 0.039-0.086 0.039-0.229-0.009 0.075-0.073 0.15-0.146 0.227-0.218 0.042-0.040 0.084-0.081 0.127-0.122 0.123-0.089 0.123-0.089 0.234-0.079z"></path>
<path fill="#eed3cc" style="fill: var(--color97, #eed3cc)" d="M15.452 20.078c0.224 0.034 0.224 0.034 0.286 0.095 0.002 0.079 0.002 0.159 0 0.238-0.095 0.018-0.19 0.034-0.286 0.048-0.048-0.048-0.048-0.048-0.054-0.191 0.006-0.143 0.006-0.143 0.054-0.191z"></path>
<path fill="#422144" style="fill: var(--color98, #422144)" d="M5.151 16.739c0.254 0.127 0.509 0.254 0.763 0.382-0.031 0.063-0.063 0.126-0.095 0.191-0.063-0.031-0.126-0.063-0.191-0.095 0-0.031 0-0.063 0-0.095-0.031 0-0.063 0-0.095 0-0.016 0.047-0.031 0.094-0.048 0.143-0.016-0.053-0.016-0.053-0.033-0.107-0.074-0.155-0.166-0.219-0.301-0.322 0-0.031 0-0.063 0-0.095z"></path>
<path fill="#412745" style="fill: var(--color99, #412745)" d="M8.489 16.548c0.047 0.016 0.094 0.031 0.143 0.048-0.189 0.265-0.444 0.484-0.763 0.572-0.047-0.016-0.094-0.031-0.143-0.048 0.035-0.021 0.070-0.043 0.106-0.065 0.244-0.151 0.466-0.291 0.657-0.508z"></path>
<path fill="#089c78" style="fill: var(--color100, #089c78)" d="M16.453 5.055c0.016 0 0.031 0 0.048 0 0.004 0.123 0.007 0.246 0.009 0.37 0.002 0.052 0.002 0.052 0.004 0.105 0.002 0.161-0 0.268-0.085 0.408-0.023 0.023-0.047 0.047-0.071 0.071 0-0.047 0-0.094 0-0.143-0.031 0-0.063 0-0.095 0 0-0.079 0-0.157 0-0.238 0.031 0 0.063 0 0.095 0 0.003-0.033 0.006-0.067 0.009-0.101 0.006-0.065 0.006-0.065 0.012-0.132 0.004-0.043 0.008-0.086 0.012-0.131 0.015-0.114 0.015-0.114 0.063-0.209z"></path>
<path fill="#5b2b59" style="fill: var(--color101, #5b2b59)" d="M18.838 16.405c0.047 0.016 0.094 0.031 0.143 0.048-0.018 0.023-0.037 0.046-0.056 0.070-0.172 0.221-0.303 0.439-0.421 0.693-0.031 0-0.063 0-0.095 0 0-0.126 0-0.252 0-0.382 0.079-0.016 0.157-0.031 0.238-0.048 0-0.047 0-0.094 0-0.143 0.031 0 0.063 0 0.095 0 0.031-0.079 0.063-0.157 0.095-0.238z"></path>
<path fill="#e6165f" style="fill: var(--color102, #e6165f)" d="M22.891 13.735c0.073 0.146 0.026 0.272 0 0.429-0.063 0.016-0.126 0.031-0.191 0.048 0 0.079 0 0.157 0 0.238-0.047 0.016-0.094 0.031-0.143 0.048 0.022-0.269 0.091-0.487 0.238-0.715 0.031-0.016 0.063-0.031 0.095-0.048z"></path>
<path fill="#422845" style="fill: var(--color103, #422845)" d="M13.258 25.562c0.031 0 0.063 0 0.095 0-0.041 0.283-0.28 0.477-0.477 0.668-0.124 0.092-0.245 0.164-0.382 0.238 0-0.047 0-0.094 0-0.143 0.072-0.063 0.072-0.063 0.17-0.128 0.235-0.167 0.463-0.374 0.593-0.635z"></path>
<path fill="#4c174a" style="fill: var(--color104, #4c174a)" d="M6.486 18.027c0.047 0.031 0.094 0.063 0.143 0.095 0.031 0 0.063 0 0.095 0 0.077 0.095 0.077 0.095 0.143 0.191-0.179 0.060-0.337 0.048-0.525 0.048 0-0.031 0-0.063 0-0.095-0.063 0-0.126 0-0.191 0-0.016-0.047-0.031-0.094-0.048-0.143 0.063-0.016 0.126-0.031 0.191-0.048 0 0.031 0 0.063 0 0.095 0.047 0 0.094 0 0.143 0 0.016-0.047 0.031-0.094 0.048-0.143z"></path>
<path fill="#412747" style="fill: var(--color105, #412747)" d="M22.414 19.839c-0.103 0.249-0.306 0.379-0.525 0.525-0.17 0.069-0.17 0.069-0.286 0.095 0-0.047 0-0.094 0-0.143 0.028-0.014 0.055-0.029 0.084-0.044 0.182-0.098 0.353-0.193 0.509-0.329 0.122-0.104 0.122-0.104 0.218-0.104zM21.508 20.459c0.047 0.024 0.047 0.024 0.095 0.048-0.031 0.031-0.063 0.063-0.095 0.095 0-0.047 0-0.094 0-0.143z"></path>
<path fill="#3d223c" style="fill: var(--color106, #3d223c)" d="M9.681 14.021c0.219 0.040 0.407 0.154 0.601 0.257 0.195 0.101 0.38 0.166 0.591 0.22-0.016 0.031-0.031 0.063-0.048 0.095-0.131-0.022-0.244-0.050-0.367-0.101-0.055-0.021-0.055-0.021-0.11-0.042-0.047 0.024-0.047 0.024-0.095 0.048-0.019-0.021-0.038-0.041-0.058-0.062-0.096-0.091-0.197-0.158-0.309-0.23-0.069-0.044-0.138-0.090-0.206-0.137 0-0.016 0-0.031 0-0.048z"></path>
<path fill="#f1165e" style="fill: var(--color107, #f1165e)" d="M18.075 14.832c0.141 0.212 0.149 0.355 0.146 0.605-0 0.056-0.001 0.113-0.001 0.17-0.001 0.043-0.001 0.086-0.002 0.131-0.031 0-0.063 0-0.095 0 0.016-0.157 0.031-0.315 0.048-0.477-0.047 0-0.094 0-0.143 0-0.031-0.094-0.063-0.189-0.095-0.286 0.047-0.047 0.094-0.094 0.143-0.143z"></path>
<path fill="#eccc20" style="fill: var(--color108, #eccc20)" d="M16.644 4.578c0.016 0 0.031 0 0.048 0 0.003 0.178 0.004 0.356 0.006 0.534 0.001 0.050 0.002 0.101 0.002 0.152 0 0.049 0.001 0.097 0.001 0.148 0 0.045 0.001 0.089 0.002 0.135-0.012 0.138-0.049 0.241-0.106 0.366-0.047 0-0.094 0-0.143 0 0.015-0.063 0.030-0.125 0.045-0.188 0.012-0.052 0.012-0.052 0.025-0.106 0.026-0.088 0.026-0.088 0.073-0.136 0.007-0.067 0.012-0.135 0.015-0.203 0.002-0.041 0.004-0.081 0.006-0.123s0.004-0.086 0.006-0.13c0.002-0.043 0.004-0.086 0.006-0.13 0.005-0.107 0.010-0.213 0.015-0.32z"></path>
<path fill="#cd1157" style="fill: var(--color109, #cd1157)" d="M13.353 15.261c0.016 0 0.031 0 0.048 0 0.003 0.055 0.006 0.109 0.009 0.166 0.004 0.073 0.008 0.146 0.012 0.219 0.002 0.036 0.004 0.072 0.006 0.109 0.017 0.309 0.035 0.605 0.164 0.89-0.031 0.031-0.063 0.063-0.095 0.095-0.186-0.483-0.156-0.97-0.143-1.478z"></path>
<path fill="#f2dce5" style="fill: var(--color110, #f2dce5)" d="M23.607 13.592c0 0.016 0 0.031 0 0.048-0.079 0-0.157 0-0.238 0-0.012 0.028-0.024 0.055-0.036 0.083-0.060 0.107-0.060 0.107-0.158 0.2-0.106 0.113-0.123 0.185-0.14 0.337-0.016 0-0.031 0-0.048 0-0.023-0.345-0.023-0.345 0.089-0.522 0.173-0.168 0.294-0.15 0.531-0.146z"></path>
<path fill="#731348" style="fill: var(--color111, #731348)" d="M8.775 17.455c0.016 0.031 0.031 0.063 0.048 0.095-0.015 0.038-0.029 0.075-0.044 0.114-0.073 0.247-0.061 0.483-0.057 0.739 0 0.051 0.001 0.102 0.001 0.155 0.001 0.125 0.003 0.251 0.005 0.376-0.156-0.156-0.11-0.345-0.111-0.557 0-0.060 0-0.12 0-0.182-0.001-0.060-0.002-0.12-0.002-0.182-0-0.057-0-0.115-0-0.174-0-0.053-0-0.106-0-0.16 0.006-0.042 0.012-0.084 0.018-0.128 0.047-0.031 0.094-0.063 0.143-0.095z"></path>
<path fill="#4a1b4e" style="fill: var(--color112, #4a1b4e)" d="M13.544 23.797c0.151 0.202 0.165 0.263 0.179 0.504 0.004 0.054 0.007 0.108 0.011 0.164 0.001 0.143 0.001 0.143-0.047 0.286-0.031 0-0.063 0-0.095 0-0.016-0.315-0.031-0.63-0.048-0.954z"></path>
<path fill="#52103c" style="fill: var(--color113, #52103c)" d="M22.367 13.401c0.016 0.031 0.031 0.063 0.048 0.095-0.121 0.267-0.313 0.471-0.525 0.668-0.047-0.016-0.094-0.031-0.143-0.048 0.031-0.030 0.063-0.059 0.095-0.089 0.193-0.192 0.357-0.411 0.525-0.626z"></path>
<path fill="#4c3038" style="fill: var(--color114, #4c3038)" d="M9.347 10.683c-0.095 0.143-0.095 0.143-0.197 0.17-0.068 0.010-0.068 0.010-0.137 0.021-0.064 0.017-0.127 0.033-0.191 0.051-0.147 0.037-0.277 0.054-0.429 0.045 0.155-0.104 0.301-0.16 0.477-0.224 0.059-0.022 0.118-0.044 0.179-0.066 0.155-0.044 0.155-0.044 0.298 0.004z"></path>
<path fill="#58252c" style="fill: var(--color115, #58252c)" d="M13.353 7.964c0.016 0 0.031 0 0.048 0 0.039 0.139 0.078 0.278 0.116 0.417 0.011 0.039 0.022 0.079 0.033 0.119 0.011 0.038 0.021 0.076 0.032 0.116 0.015 0.052 0.015 0.052 0.030 0.106 0.026 0.097 0.051 0.194 0.075 0.291-0.047 0-0.094 0-0.143 0 0-0.063 0-0.126 0-0.191-0.031 0-0.063 0-0.095 0-0.067-0.292-0.106-0.559-0.095-0.858z"></path>
<path fill="#e90c4b" style="fill: var(--color116, #e90c4b)" d="M17.598 20.984c0.096 0.014 0.191 0.029 0.286 0.048-0.047 0.071-0.047 0.071-0.095 0.143-0.016 0.047-0.031 0.094-0.048 0.143-0.016 0.031-0.031 0.063-0.048 0.095-0.122 0.030-0.122 0.030-0.238 0.048 0.015-0.071 0.030-0.141 0.045-0.212 0.008-0.039 0.017-0.079 0.025-0.119 0.026-0.099 0.026-0.099 0.073-0.146z"></path>
<path fill="#642865" style="fill: var(--color117, #642865)" d="M28.28 17.741c0.031 0.047 0.063 0.094 0.095 0.143-0.059 0.062-0.119 0.123-0.179 0.185-0.033 0.034-0.066 0.069-0.101 0.104-0.095 0.086-0.176 0.138-0.293 0.188-0.016-0.031-0.031-0.063-0.048-0.095 0.063-0.072 0.063-0.072 0.143-0.143 0.047 0 0.094 0 0.143 0 0.031-0.094 0.063-0.189 0.095-0.286 0.047 0 0.094 0 0.143 0 0-0.031 0-0.063 0-0.095z"></path>
<path fill="#d82663" style="fill: var(--color118, #d82663)" d="M22.987 13.496c0.031 0.031 0.063 0.063 0.095 0.095 0.047-0.016 0.094-0.031 0.143-0.048 0.226-0.014 0.447-0.009 0.668 0.048-0.016 0.063-0.031 0.126-0.048 0.191-0.049-0.035-0.049-0.035-0.098-0.072-0.172-0.088-0.283-0.089-0.474-0.072-0.101 0.043-0.101 0.043-0.191 0.095-0.079 0.018-0.159 0.034-0.238 0.048 0.089-0.232 0.089-0.232 0.143-0.286z"></path>
<path fill="#e1084a" style="fill: var(--color119, #e1084a)" d="M17.693 15.595c0.11 0.016 0.22 0.031 0.334 0.048-0.055 0.118-0.098 0.193-0.191 0.286 0 0.031 0 0.063 0 0.095-0.092-0.033-0.092-0.033-0.191-0.095-0.036-0.125-0.036-0.125-0.048-0.238 0.031 0 0.063 0 0.095 0 0-0.031 0-0.063 0-0.095z"></path>
<path fill="#5d3260" style="fill: var(--color120, #5d3260)" d="M10.969 9.538c0.108 0.005 0.217 0.012 0.325 0.018 0.060 0.003 0.121 0.007 0.183 0.010 0.16 0.020 0.16 0.020 0.303 0.115-0.299 0-0.598 0-0.906 0 0.031-0.047 0.063-0.094 0.095-0.143z"></path>
<path fill="#582533" style="fill: var(--color121, #582533)" d="M17.884 9.061c0.016 0 0.031 0 0.048 0 0.039 0.259-0.015 0.378-0.167 0.593-0.055 0.073-0.11 0.146-0.167 0.218-0.031-0.016-0.063-0.031-0.095-0.048 0.126-0.252 0.252-0.504 0.382-0.763z"></path>
<path fill="#ccd733" style="fill: var(--color122, #ccd733)" d="M16.405 5.914c0.039 0.077 0.039 0.077 0.048 0.191-0.106 0.205-0.106 0.205-0.238 0.286-0.193 0.025-0.379 0.017-0.572 0 0-0.016 0-0.031 0-0.048 0.042-0.009 0.042-0.009 0.085-0.018 0.302-0.057 0.302-0.057 0.582-0.173 0.065-0.12 0.065-0.12 0.095-0.238z"></path>
<path fill="#452545" style="fill: var(--color123, #452545)" d="M18.17 25.276c0.124 0.116 0.221 0.243 0.319 0.382 0.045 0.062 0.045 0.062 0.090 0.125 0.068 0.113 0.068 0.113 0.068 0.256-0.095-0.066-0.095-0.066-0.191-0.143 0-0.031 0-0.063 0-0.095-0.031 0-0.063 0-0.095 0-0.049-0.079-0.097-0.158-0.143-0.238-0.016 0-0.031 0-0.048 0 0-0.094 0-0.189 0-0.286z"></path>
<path fill="#5c385c" style="fill: var(--color124, #5c385c)" d="M18.027 24.083c0.016 0 0.031 0 0.048 0 0.002 0.054 0.005 0.108 0.007 0.164 0.004 0.073 0.007 0.145 0.011 0.218 0.001 0.035 0.003 0.071 0.004 0.108 0.013 0.246 0.054 0.466 0.121 0.703-0.047 0.016-0.094 0.031-0.143 0.048-0.084-0.426-0.1-0.809-0.048-1.24z"></path>
<path fill="#481847" style="fill: var(--color125, #481847)" d="M17.645 10.349c0 0.143 0 0.143-0.063 0.212-0.027 0.025-0.053 0.049-0.080 0.075-0.049 0.063-0.096 0.126-0.143 0.191-0.031-0.016-0.063-0.031-0.095-0.048 0.016-0.11 0.031-0.22 0.048-0.334 0.11-0.031 0.22-0.063 0.334-0.095z"></path>
<path fill="#3d153a" style="fill: var(--color126, #3d153a)" d="M18.17 23.368c0.057 0.171 0.032 0.229-0.018 0.399-0.083 0.311-0.11 0.615-0.125 0.936-0.016 0-0.031 0-0.048 0-0.012-1.025-0.012-1.025 0.095-1.24 0.031 0 0.063 0 0.095 0 0-0.031 0-0.063 0-0.095z"></path>
<path fill="#4f2851" style="fill: var(--color127, #4f2851)" d="M18.695 22.653c-0.081 0.168-0.174 0.328-0.268 0.489-0.030 0.051-0.060 0.103-0.091 0.156-0.023 0.039-0.046 0.078-0.070 0.118-0.031-0.031-0.063-0.063-0.095-0.095 0.311-0.668 0.311-0.668 0.525-0.668z"></path>
<path fill="#d18a18" style="fill: var(--color128, #d18a18)" d="M18.313 5.961c0.031 0 0.063 0 0.095 0 0.058 0.175 0.042 0.302 0.027 0.486-0.005 0.061-0.010 0.121-0.015 0.184-0.006 0.070-0.006 0.070-0.012 0.141-0.136-0.136-0.116-0.243-0.128-0.432-0.004-0.061-0.008-0.121-0.012-0.184-0.001-0.049-0.002-0.097-0.002-0.147 0.016-0.016 0.031-0.031 0.048-0.048z"></path>
<path fill="#e6d7ed" style="fill: var(--color129, #e6d7ed)" d="M22.7 23.988c0.016 0 0.031 0 0.048 0 0 0.283 0 0.567 0 0.858-0.096-0.143-0.119-0.225-0.149-0.39-0.008-0.043-0.016-0.086-0.024-0.13-0.006-0.033-0.012-0.066-0.017-0.099 0.031 0 0.063 0 0.095 0 0.016-0.079 0.031-0.157 0.048-0.238z"></path>
<path fill="#482646" style="fill: var(--color130, #482646)" d="M18.599 19.505c0.172 0.167 0.326 0.339 0.477 0.525-0.047 0.016-0.094 0.031-0.143 0.048-0.048-0.048-0.095-0.095-0.143-0.143-0.043-0.038-0.087-0.077-0.131-0.116-0.035-0.040-0.071-0.081-0.107-0.122 0.009-0.11 0.009-0.11 0.048-0.191z"></path>
<path fill="#4f232c" style="fill: var(--color131, #4f232c)" d="M18.313 7.535c0.016 0 0.031 0 0.048 0-0.001 0.049-0.002 0.098-0.003 0.149 0.003 0.163 0.019 0.311 0.051 0.471-0.063 0.016-0.126 0.031-0.191 0.048 0 0.079 0 0.157 0 0.238-0.031 0.016-0.063 0.031-0.095 0.048 0.063-0.315 0.126-0.63 0.191-0.954z"></path>
<path fill="#09d481" style="fill: var(--color132, #09d481)" d="M16.167 1.192c0.125 0.050 0.181 0.079 0.25 0.197 0.012 0.030 0.024 0.059 0.036 0.089-0.029 0.006-0.059 0.012-0.089 0.018-0.11 0.024-0.11 0.024-0.197 0.125 0-0.031 0-0.063 0-0.095-0.031 0-0.063 0-0.095 0 0-0.063 0-0.126 0-0.191 0.031 0 0.063 0 0.095 0 0-0.047 0-0.094 0-0.143z"></path>
<path fill="#442442" style="fill: var(--color133, #442442)" d="M9.3 25.8c0.164 0.072 0.28 0.168 0.411 0.289 0.141 0.133 0.141 0.133 0.304 0.235 0 0.031 0 0.063 0 0.095-0.219-0.071-0.358-0.179-0.525-0.334 0-0.031 0-0.063 0-0.095-0.031 0-0.063 0-0.095 0 0-0.031 0-0.063 0-0.095-0.031 0-0.063 0-0.095 0 0-0.031 0-0.063 0-0.095z"></path>
<path fill="#d8cedb" style="fill: var(--color134, #d8cedb)" d="M13.544 23.988c0.016 0 0.031 0 0.048 0 0.001 0.122 0.002 0.244 0.003 0.367 0 0.034 0.001 0.069 0.001 0.104 0.001 0.183-0.007 0.353-0.052 0.531-0.031-0.016-0.063-0.031-0.095-0.048 0-0.22 0-0.441 0-0.668 0.031 0 0.063 0 0.095 0 0-0.094 0-0.189 0-0.286z"></path>
<path fill="#e6185b" style="fill: var(--color135, #e6185b)" d="M18.075 20.554c0.191 0.287 0.204 0.572 0.191 0.906-0.014-0.030-0.028-0.061-0.042-0.092-0.045-0.106-0.045-0.106-0.149-0.146 0-0.047 0-0.094 0-0.143 0.031 0 0.063 0 0.095 0-0.016-0.042-0.031-0.085-0.048-0.128-0.044-0.144-0.056-0.248-0.048-0.396z"></path>
<path fill="#f31053" style="fill: var(--color136, #f31053)" d="M18.218 11.732c0.047 0.016 0.094 0.031 0.143 0.048-0.016 0.031-0.031 0.063-0.048 0.095 0.094-0.031 0.189-0.063 0.286-0.095 0.016 0.063 0.031 0.126 0.048 0.191-0.047 0.016-0.094 0.031-0.143 0.048-0.016 0.031-0.031 0.063-0.048 0.095 0-0.047 0-0.094 0-0.143-0.142-0.024-0.142-0.024-0.286-0.048 0.016-0.063 0.031-0.126 0.048-0.191z"></path>
<path fill="#371c3a" style="fill: var(--color137, #371c3a)" d="M8.584 10.969c-0.143 0.095-0.143 0.095-0.316 0.14-0.053 0.017-0.106 0.033-0.161 0.051-0.016 0.047-0.031 0.094-0.048 0.143-0.094 0-0.189 0-0.286 0 0.095-0.143 0.095-0.143 0.244-0.176 0.045-0.005 0.091-0.010 0.137-0.015 0-0.031 0-0.063 0-0.095 0.152-0.051 0.27-0.051 0.429-0.048z"></path>
<path fill="#37173e" style="fill: var(--color138, #37173e)" d="M3.768 10.73c0.031 0.016 0.063 0.031 0.095 0.048-0.035 0.055-0.035 0.055-0.072 0.11-0.083 0.125-0.083 0.125-0.072 0.271-0.047 0.024-0.047 0.024-0.095 0.048-0.031 0.121-0.031 0.121-0.048 0.238-0.016 0-0.031 0-0.048 0-0.037-0.419-0.037-0.419 0.053-0.562 0.066-0.064 0.066-0.064 0.185-0.154z"></path>
<path fill="#540d38" style="fill: var(--color139, #540d38)" d="M16.596 23.988c-0.274 0.182-0.481 0.204-0.802 0.197-0.056-0.001-0.056-0.001-0.114-0.001-0.092-0.001-0.184-0.003-0.277-0.005-0.016-0.031-0.031-0.063-0.048-0.095 0.056-0.003 0.113-0.006 0.171-0.009 0.074-0.004 0.149-0.008 0.223-0.012 0.037-0.002 0.074-0.004 0.112-0.006 0.036-0.002 0.072-0.004 0.109-0.006 0.033-0.002 0.066-0.003 0.1-0.005 0.182-0.019 0.339-0.063 0.525-0.057z"></path>
<path fill="#49174c" style="fill: var(--color140, #49174c)" d="M16.978 11.112c0.047 0 0.094 0 0.143 0 0.016 0.094 0.031 0.189 0.048 0.286-0.031 0-0.063 0-0.095 0-0.016 0.031-0.031 0.063-0.048 0.095-0.063-0.016-0.126-0.031-0.191-0.048 0.089-0.28 0.089-0.28 0.143-0.334z"></path>
<path fill="#eff0d2" style="fill: var(--color141, #eff0d2)" d="M2.909 10.921c-0.256 0.108-0.434 0.154-0.715 0.143-0.047 0.024-0.047 0.024-0.095 0.048 0-0.031 0-0.063 0-0.095-0.094 0-0.189 0-0.286 0 0-0.016 0-0.031 0-0.048 0.147-0.017 0.294-0.034 0.441-0.051 0.042-0.005 0.083-0.010 0.126-0.015 0.040-0.004 0.081-0.009 0.122-0.014 0.037-0.004 0.074-0.008 0.112-0.013 0.108-0.003 0.192 0.013 0.296 0.044z"></path>
<path fill="#683371" style="fill: var(--color142, #683371)" d="M3.529 12.733c0.031 0.031 0.063 0.063 0.095 0.095-0.023 0.026-0.046 0.052-0.070 0.078-0.030 0.034-0.060 0.068-0.091 0.103-0.045 0.051-0.045 0.051-0.091 0.102-0.089 0.102-0.089 0.102-0.178 0.241-0.047-0.016-0.094-0.031-0.143-0.048 0.071-0.086 0.141-0.173 0.212-0.259 0.059-0.072 0.059-0.072 0.119-0.146 0.099-0.119 0.099-0.119 0.146-0.167z"></path>
<path fill="#402b49" style="fill: var(--color143, #402b49)" d="M12.733 14.116c0 0.047 0 0.094 0 0.143-0.037 0.016-0.075 0.031-0.113 0.047-0.048 0.021-0.097 0.042-0.146 0.063-0.048 0.020-0.096 0.041-0.146 0.062-0.134 0.057-0.134 0.057-0.167 0.209-0.031 0-0.063 0-0.095 0 0-0.063 0-0.126 0-0.191 0.22-0.11 0.441-0.22 0.668-0.334z"></path>
<path fill="#e93f7d" style="fill: var(--color144, #e93f7d)" d="M24.131 13.735c0.016 0 0.031 0 0.048 0 0.016 0.094 0.031 0.189 0.048 0.286-0.063-0.016-0.126-0.031-0.191-0.048-0.016 0.126-0.031 0.252-0.048 0.382-0.031-0.016-0.063-0.031-0.095-0.048 0-0.173 0-0.346 0-0.525 0.063 0.016 0.126 0.031 0.191 0.048 0.016-0.031 0.031-0.063 0.048-0.095z"></path>
<path fill="#341c26" style="fill: var(--color145, #341c26)" d="M13.162 6.247c0.016 0 0.031 0 0.048 0 0 0.252 0 0.504 0 0.763-0.016 0-0.031 0-0.048 0-0.016-0.126-0.031-0.252-0.048-0.382-0.047 0.024-0.047 0.024-0.095 0.048-0.012-0.148-0.011-0.221 0.069-0.349 0.025-0.027 0.049-0.053 0.075-0.080z"></path>
<path fill="#de3170" style="fill: var(--color146, #de3170)" d="M9.49 16.548c0.126 0 0.252 0 0.382 0 0.016 0.031 0.031 0.063 0.048 0.095-0.065 0.019-0.065 0.019-0.131 0.039-0.141 0.052-0.232 0.104-0.346 0.2 0.016-0.11 0.031-0.22 0.048-0.334z"></path>
<path fill="#432646" style="fill: var(--color147, #432646)" d="M22.319 25.705c0.047 0.016 0.094 0.031 0.143 0.048-0.172 0.218-0.333 0.382-0.572 0.525 0.069-0.154 0.155-0.268 0.268-0.393 0.030-0.034 0.060-0.067 0.091-0.102 0.023-0.025 0.046-0.051 0.070-0.077z"></path>
<path fill="#f0216c" style="fill: var(--color148, #f0216c)" d="M14.832 13.162c0.016 0.031 0.031 0.063 0.048 0.095-0.083 0.070-0.167 0.139-0.25 0.209-0.046 0.039-0.093 0.077-0.141 0.117-0.107 0.083-0.2 0.145-0.324 0.199 0-0.031 0-0.063 0-0.095 0.082-0.075 0.167-0.146 0.253-0.215 0.047-0.038 0.094-0.076 0.143-0.115 0.129-0.1 0.129-0.1 0.272-0.195z"></path>
<path fill="#e8e8d8" style="fill: var(--color149, #e8e8d8)" d="M28.089 10.778c0.239 0.029 0.477 0.061 0.715 0.095 0 0.016 0 0.031 0 0.048-0.054-0.003-0.054-0.003-0.11-0.007-0.047-0.002-0.095-0.003-0.144-0.005-0.071-0.003-0.071-0.003-0.142-0.007-0.136 0.006-0.136 0.006-0.217 0.115-0.018 0.031-0.036 0.062-0.055 0.095-0.016-0.11-0.031-0.22-0.048-0.334z"></path>
<path fill="#36213c" style="fill: var(--color150, #36213c)" d="M20.125 20.554c0.331 0 0.661 0 1.002 0 0 0.016 0 0.031 0 0.048-0.094 0.017-0.189 0.034-0.283 0.051-0.079 0.014-0.079 0.014-0.159 0.029-0.064 0.008-0.064 0.008-0.13 0.016-0.016-0.016-0.031-0.031-0.048-0.048-0.064-0.011-0.129-0.020-0.194-0.027-0.062-0.007-0.124-0.014-0.188-0.021 0-0.016 0-0.031 0-0.048z"></path>
<path fill="#552851" style="fill: var(--color151, #552851)" d="M22.796 20.316c0.079 0 0.157 0 0.238 0-0.054 0.096-0.109 0.191-0.164 0.286-0.046 0.080-0.046 0.080-0.092 0.161-0.026 0.041-0.051 0.083-0.078 0.125-0.016 0-0.031 0-0.048 0 0-0.079 0-0.157 0-0.238 0.031 0 0.063 0 0.095 0 0-0.063 0-0.126 0-0.191 0.031 0 0.063 0 0.095 0-0.016-0.047-0.031-0.094-0.048-0.143z"></path>
<path fill="#e50b4e" style="fill: var(--color152, #e50b4e)" d="M13.306 18.027c0 0.173 0 0.346 0 0.525-0.047-0.031-0.094-0.063-0.143-0.095 0.031-0.047 0.063-0.094 0.095-0.143-0.047 0-0.094 0-0.143 0 0-0.079 0-0.157 0-0.238 0.095-0.048 0.095-0.048 0.191-0.048z"></path>
<path fill="#df0749" style="fill: var(--color153, #df0749)" d="M9.013 18.218c0.11 0.016 0.22 0.031 0.334 0.048 0 0.063 0 0.126 0 0.191-0.129 0.065-0.239 0.051-0.382 0.048 0.047-0.047 0.094-0.094 0.143-0.143-0.031-0.047-0.063-0.094-0.095-0.143z"></path>
<path fill="#f5f2dc" style="fill: var(--color154, #f5f2dc)" d="M9.729 10.158c0.031 0 0.063 0 0.095 0-0.067 0.153-0.148 0.254-0.268 0.37-0.045 0.044-0.045 0.044-0.091 0.089-0.023 0.022-0.046 0.044-0.070 0.066-0.016-0.031-0.031-0.063-0.048-0.095 0.055-0.063 0.109-0.125 0.164-0.188 0.030-0.035 0.061-0.070 0.092-0.106 0.041-0.046 0.082-0.092 0.125-0.136z"></path>
<path fill="#613034" style="fill: var(--color155, #613034)" d="M24.846 10.73c0.016 0 0.031 0 0.048 0-0.005 0.069-0.012 0.137-0.018 0.206-0.003 0.038-0.007 0.076-0.010 0.116-0.020 0.108-0.020 0.108-0.115 0.251-0.114 0.014-0.114 0.014-0.244 0.009-0.043-0.001-0.087-0.003-0.132-0.004-0.033-0.002-0.067-0.003-0.101-0.005 0-0.016 0-0.031 0-0.048 0.029-0.002 0.059-0.004 0.089-0.006 0.126-0.016 0.225-0.035 0.34-0.090 0.081-0.137 0.115-0.274 0.143-0.429z"></path>
<path fill="#ed416f" style="fill: var(--color156, #ed416f)" d="M15.309 20.030c0.060-0.001 0.12-0.002 0.182-0.003 0.034-0.001 0.068-0.001 0.102-0.002 0.097 0.005 0.097 0.005 0.241 0.052-0.016 0.094-0.031 0.189-0.048 0.286-0.011-0.030-0.022-0.061-0.033-0.092-0.056-0.111-0.056-0.111-0.188-0.134-0.037-0.004-0.075-0.008-0.113-0.012-0.031 0.063-0.063 0.126-0.095 0.191-0.016-0.094-0.031-0.189-0.048-0.286z"></path>
<path fill="#532132" style="fill: var(--color157, #532132)" d="M13.925 9.681c0.143 0.048 0.143 0.048 0.199 0.136 0.016 0.035 0.032 0.070 0.049 0.106s0.033 0.070 0.050 0.106c0.012 0.027 0.024 0.054 0.037 0.082-0.031 0-0.063 0-0.095 0 0-0.031 0-0.063 0-0.095-0.038-0.012-0.077-0.024-0.116-0.036-0.122-0.060-0.122-0.060-0.164-0.158-0.002-0.030-0.004-0.061-0.006-0.092 0.016-0.016 0.031-0.031 0.048-0.048z"></path>
<path fill="#561d28" style="fill: var(--color158, #561d28)" d="M19.41 7.964c0.155 0.151 0.297 0.305 0.429 0.477-0.016 0.031-0.031 0.063-0.048 0.095-0.063-0.016-0.126-0.031-0.191-0.048 0-0.079 0-0.157 0-0.238-0.031 0-0.063 0-0.095 0-0.031-0.094-0.063-0.189-0.095-0.286z"></path>
<path fill="#662b5e" style="fill: var(--color159, #662b5e)" d="M28.709 17.121c0.047 0.016 0.094 0.031 0.143 0.048-0.036 0.071-0.073 0.141-0.11 0.212-0.020 0.039-0.041 0.079-0.062 0.119-0.066 0.099-0.066 0.099-0.209 0.146 0.064-0.172 0.143-0.321 0.238-0.477 0-0.016 0-0.031 0-0.048z"></path>
<path fill="#623168" style="fill: var(--color160, #623168)" d="M21.079 15.785c0.126 0.031 0.252 0.063 0.382 0.095-0.016 0.047-0.031 0.094-0.048 0.143-0.173-0.031-0.346-0.063-0.525-0.095 0.063-0.016 0.126-0.031 0.191-0.048 0-0.031 0-0.063 0-0.095z"></path>
<path fill="#ecebe3" style="fill: var(--color161, #ecebe3)" d="M3.529 10.778c0 0.11 0 0.22 0 0.334-0.047-0.016-0.094-0.031-0.143-0.048-0.033-0.098-0.033-0.098-0.048-0.191-0.063-0.016-0.126-0.031-0.191-0.048 0.132-0.028 0.246-0.048 0.382-0.048z"></path>
<path fill="#3c1b33" style="fill: var(--color162, #3c1b33)" d="M26.373 10.349c0.077 0.014 0.153 0.027 0.23 0.042 0.064 0.012 0.064 0.012 0.129 0.023 0.118 0.030 0.118 0.030 0.261 0.126-0.094 0.031-0.189 0.063-0.286 0.095-0.016-0.063-0.031-0.126-0.048-0.191-0.094 0-0.189 0-0.286 0 0-0.031 0-0.063 0-0.095z"></path>
<path fill="#530c3a" style="fill: var(--color163, #530c3a)" d="M24.274 17.264c0.315 0 0.63 0 0.954 0 0 0.016 0 0.031 0 0.048-0.076 0.008-0.153 0.016-0.23 0.024-0.043 0.004-0.085 0.009-0.129 0.013-0.205 0.018-0.392-0.007-0.595-0.037 0-0.016 0-0.031 0-0.048z"></path>
<path fill="#e1064b" style="fill: var(--color164, #e1064b)" d="M14.069 15.738c-0.016 0.047-0.031 0.094-0.048 0.143-0.045-0.010-0.091-0.020-0.137-0.030-0.049-0.006-0.098-0.012-0.149-0.018-0.031 0.031-0.063 0.063-0.095 0.095-0.016-0.063-0.031-0.126-0.048-0.191 0.157-0.078 0.306-0.025 0.477 0z"></path>
<path fill="#672472" style="fill: var(--color165, #672472)" d="M27.994 12.733c0.182 0.074 0.299 0.189 0.429 0.334 0 0.031 0 0.063 0 0.095-0.185-0.083-0.185-0.083-0.238-0.191-0.047-0.016-0.094-0.031-0.143-0.048-0.033-0.098-0.033-0.098-0.048-0.191z"></path>
<path fill="#ecf0ce" style="fill: var(--color166, #ecf0ce)" d="M24.656 5.961c0.031 0 0.063 0 0.095 0-0.066 0.141-0.145 0.257-0.238 0.382-0.033 0.063-0.065 0.126-0.095 0.191-0.017-0.14-0.025-0.245 0.050-0.369 0.064-0.078 0.064-0.078 0.189-0.203z"></path>
<path fill="#e9e8e4" style="fill: var(--color167, #e9e8e4)" d="M18.456 18.122c0.101 0.018 0.101 0.018 0.191 0.048-0.048 0.095-0.048 0.095-0.143 0.238-0.047 0.016-0.094 0.031-0.143 0.048-0.006-0.113-0.006-0.113 0-0.238 0.031-0.031 0.063-0.063 0.095-0.095z"></path>
<path fill="#561e40" style="fill: var(--color168, #561e40)" d="M20.602 9.586c0.061-0.003 0.122-0.006 0.185-0.009 0.051-0.002 0.051-0.002 0.104-0.005 0.031 0.005 0.061 0.009 0.093 0.014 0.031 0.047 0.063 0.094 0.095 0.143-0.173-0.016-0.346-0.031-0.525-0.048 0.016-0.031 0.031-0.063 0.048-0.095z"></path>
<path fill="#f5f2d7" style="fill: var(--color169, #f5f2d7)" d="M8.918 5.151c-0.089 0.185-0.089 0.185-0.143 0.238-0.003 0.072-0.004 0.145-0.003 0.218 0 0.039 0.001 0.079 0.001 0.119 0.001 0.030 0.001 0.061 0.002 0.092-0.095-0.095-0.095-0.095-0.11-0.28 0.003-0.137 0.013-0.193 0.080-0.316 0.078-0.072 0.078-0.072 0.173-0.072z"></path>
<path fill="#3f2a48" style="fill: var(--color170, #3f2a48)" d="M21.556 26.516c-0.030 0.005-0.061 0.010-0.092 0.015-0.049 0.016-0.049 0.016-0.098 0.033-0.016 0.047-0.031 0.094-0.048 0.143-0.079 0-0.157 0-0.238 0 0.048-0.143 0.048-0.143 0.158-0.203 0.133-0.037 0.192-0.035 0.319 0.012z"></path>
<path fill="#5d2a65" style="fill: var(--color171, #5d2a65)" d="M24.99 22.128c0.016 0.047 0.031 0.094 0.048 0.143-0.092 0.152-0.092 0.152-0.191 0.286-0.063-0.031-0.126-0.063-0.191-0.095 0.073-0.059 0.146-0.118 0.219-0.177s0.074-0.060 0.115-0.157z"></path>
<path fill="#e83b72" style="fill: var(--color172, #e83b72)" d="M14.45 19.934c0.11 0 0.22 0 0.334 0-0.026 0.012-0.051 0.024-0.078 0.036-0.14 0.074-0.269 0.161-0.399 0.25 0-0.063 0-0.126 0-0.191 0.047 0 0.094 0 0.143 0 0-0.031 0-0.063 0-0.095z"></path>
<path fill="#e22762" style="fill: var(--color173, #e22762)" d="M14.212 13.878c0.080 0.002 0.159 0.007 0.238 0.015 0.065 0.006 0.065 0.006 0.131 0.011 0.035 0.007 0.071 0.014 0.107 0.021 0.016 0.031 0.031 0.063 0.048 0.095-0.077-0.003-0.077-0.003-0.155-0.006-0.162 0.005-0.236 0.016-0.37 0.101-0.027-0.092-0.027-0.092-0.048-0.191 0.016-0.016 0.031-0.031 0.048-0.048z"></path>
<path fill="#ee3669" style="fill: var(--color174, #ee3669)" d="M24.179 13.496c0.173 0 0.346 0 0.525 0-0.016 0.031-0.031 0.063-0.048 0.095-0.065-0.004-0.065-0.004-0.131-0.009-0.169 0.010-0.224 0.040-0.346 0.152 0-0.079 0-0.157 0-0.238z"></path>
<path fill="#df3973" style="fill: var(--color175, #df3973)" d="M18.885 10.778c0.094 0.024 0.094 0.024 0.191 0.048-0.047 0.071-0.047 0.071-0.095 0.143-0.012 0.109-0.012 0.109-0.006 0.224 0.001 0.039 0.002 0.077 0.003 0.117 0.001 0.029 0.002 0.059 0.003 0.089-0.031 0-0.063 0-0.095 0-0.009-0.085-0.018-0.171-0.027-0.256-0.005-0.048-0.010-0.095-0.015-0.144-0.006-0.124-0.006-0.124 0.042-0.219z"></path>
<path fill="#f0ba21" style="fill: var(--color176, #f0ba21)" d="M1.335 9.681c0.005 0.030 0.010 0.061 0.015 0.092 0.011 0.032 0.022 0.065 0.033 0.098 0.047 0.016 0.094 0.031 0.143 0.048-0.125 0.083-0.193 0.114-0.334 0.143 0.089-0.274 0.089-0.274 0.143-0.382z"></path>
<path fill="#f7d123" style="fill: var(--color177, #f7d123)" d="M7.249 4.101c-0.016 0.047-0.031 0.094-0.048 0.143-0.095 0.047-0.095 0.047-0.212 0.083-0.038 0.013-0.077 0.025-0.116 0.038-0.102 0.022-0.102 0.022-0.197-0.026 0.077-0.040 0.155-0.080 0.232-0.119 0.043-0.022 0.086-0.044 0.131-0.067 0.114-0.052 0.114-0.052 0.209-0.052z"></path>
<path fill="#f04468" style="fill: var(--color178, #f04468)" d="M15.785 14.402c0 0.143 0 0.143-0.072 0.224-0.024 0.021-0.047 0.041-0.072 0.063-0.118-0.047-0.118-0.047-0.238-0.095 0-0.047 0-0.094 0-0.143 0.016 0.016 0.031 0.031 0.048 0.048 0.117 0.012 0.117 0.012 0.238 0 0.031-0.031 0.063-0.063 0.095-0.095z"></path>
<path fill="#dcdde1" style="fill: var(--color179, #dcdde1)" d="M12.924 14.021c-0.069 0.048-0.139 0.096-0.209 0.143-0.058 0.040-0.058 0.040-0.117 0.080-0.103 0.063-0.103 0.063-0.199 0.063 0-0.031 0-0.063 0-0.095 0.078-0.063 0.078-0.063 0.182-0.128 0.034-0.022 0.068-0.044 0.102-0.066 0.097-0.044 0.097-0.044 0.241 0.004z"></path>
<path fill="#562e26" style="fill: var(--color180, #562e26)" d="M26.993 10.492c0.22 0.047 0.441 0.094 0.668 0.143 0 0.016 0 0.031 0 0.048-0.173 0-0.346 0-0.525 0 0-0.031 0-0.063 0-0.095-0.047-0.016-0.094-0.031-0.143-0.048 0-0.016 0-0.031 0-0.048z"></path>
<path fill="#f0f1d1" style="fill: var(--color181, #f0f1d1)" d="M20.888 4.626c0.031 0.016 0.063 0.031 0.095 0.048-0.046 0.050-0.046 0.050-0.092 0.101-0.106 0.148-0.129 0.244-0.146 0.423-0.016 0-0.031 0-0.048 0-0.023-0.352-0.023-0.352 0.095-0.501 0.031-0.024 0.063-0.047 0.095-0.072z"></path>
<path fill="#f0ce38" style="fill: var(--color182, #f0ce38)" d="M10.635 4.578c0.142 0.024 0.142 0.024 0.286 0.048 0.056 0.175 0.051 0.342 0.048 0.525-0.016 0-0.031 0-0.048 0-0.018-0.089-0.018-0.089-0.036-0.179-0.044-0.18-0.103-0.276-0.25-0.393z"></path>
<path fill="#f5c12b" style="fill: var(--color183, #f5c12b)" d="M9.872 4.769c-0.11 0.11-0.166 0.119-0.316 0.149-0.039 0.008-0.078 0.016-0.118 0.024-0.045 0.009-0.045 0.009-0.091 0.018 0-0.031 0-0.063 0-0.095 0.173-0.111 0.323-0.103 0.525-0.095z"></path>
<path fill="#e5bc33" style="fill: var(--color184, #e5bc33)" d="M29.854 9.013c0.125 0.113 0.206 0.233 0.286 0.382 0 0.031 0 0.063 0 0.095-0.031 0-0.063 0-0.095 0 0-0.047 0-0.094 0-0.143-0.047-0.016-0.094-0.031-0.143-0.048-0.016-0.094-0.031-0.189-0.048-0.286z"></path>
<path fill="#4c1a50" style="fill: var(--color185, #4c1a50)" d="M13.115 7.63c0.031 0.031 0.063 0.063 0.095 0.095-0.086 0.075-0.086 0.075-0.191 0.143-0.047-0.016-0.094-0.031-0.143-0.048 0-0.031 0-0.063 0-0.095 0.079-0.031 0.157-0.063 0.238-0.095z"></path>
<path fill="#441f44" style="fill: var(--color186, #441f44)" d="M18.17 23.368c0.063 0.188 0.012 0.292-0.048 0.477-0.031 0-0.063 0-0.095 0-0.006-0.274-0.006-0.274 0.048-0.382 0.031 0 0.063 0 0.095 0 0-0.031 0-0.063 0-0.095z"></path>
<path fill="#5d0a37" style="fill: var(--color187, #5d0a37)" d="M13.925 23.225c0.055 0.046 0.109 0.091 0.164 0.137 0.030 0.025 0.061 0.051 0.092 0.077 0.078 0.072 0.078 0.072 0.125 0.167-0.127-0.064-0.254-0.127-0.382-0.191 0-0.063 0-0.126 0-0.191z"></path>
<path fill="#ea3069" style="fill: var(--color188, #ea3069)" d="M15.69 13.83c0 0.016 0 0.031 0 0.048-0.044 0.014-0.089 0.028-0.134 0.042-0.157 0.048-0.157 0.048-0.295 0.149-0.016-0.063-0.031-0.126-0.048-0.191 0.153-0.077 0.307-0.050 0.477-0.048z"></path>
<path fill="#51174c" style="fill: var(--color189, #51174c)" d="M12.066 8.68c0.047 0.016 0.094 0.031 0.143 0.048-0.031 0.063-0.063 0.126-0.095 0.191-0.031-0.031-0.063-0.063-0.095-0.095 0.016-0.047 0.031-0.094 0.048-0.143zM11.922 8.87c0.031 0 0.063 0 0.095 0-0.016 0.047-0.031 0.094-0.048 0.143-0.031 0-0.063 0-0.095 0 0.016-0.047 0.031-0.094 0.048-0.143z"></path>
<path fill="#0a9a6d" style="fill: var(--color190, #0a9a6d)" d="M15.738 6.104c0.031 0 0.063 0 0.095 0 0.031 0.079 0.063 0.157 0.095 0.238-0.126 0-0.252 0-0.382 0 0.063-0.031 0.126-0.063 0.191-0.095 0-0.047 0-0.094 0-0.143z"></path>
<path fill="#351a3f" style="fill: var(--color191, #351a3f)" d="M18.456 6.343c0.016 0.047 0.031 0.094 0.048 0.143 0.031 0 0.063 0 0.095 0 0 0.079 0 0.157 0 0.238-0.047 0-0.094 0-0.143 0 0-0.126 0-0.252 0-0.382z"></path>
<path fill="#c4d53d" style="fill: var(--color192, #c4d53d)" d="M16.405 5.914c0.030 0.086 0.030 0.086 0.048 0.191-0.047 0.071-0.047 0.071-0.095 0.143-0.063-0.016-0.126-0.031-0.191-0.048 0.047-0.016 0.094-0.031 0.143-0.048 0.058-0.119 0.058-0.119 0.095-0.238z"></path>
<path fill="#f6cd19" style="fill: var(--color193, #f6cd19)" d="M5.198 5.294c-0.016 0.079-0.031 0.157-0.048 0.238-0.079-0.016-0.157-0.031-0.238-0.048 0.179-0.191 0.179-0.191 0.286-0.191z"></path>
<path fill="#2ad192" style="fill: var(--color194, #2ad192)" d="M16.167 1.192c0.125 0.050 0.181 0.079 0.25 0.197 0.012 0.030 0.024 0.059 0.036 0.089-0.063 0-0.126 0-0.191 0 0-0.063 0-0.126 0-0.191-0.031 0-0.063 0-0.095 0 0-0.031 0-0.063 0-0.095z"></path>
</symbol>


</defs>
</svg>
